<?xml version="1.0" encoding="utf-8"?>
<!-- Generator: Adobe Illustrator 21.0.0, SVG Export Plug-In . SVG Version: 6.00 Build 0)  -->
<svg version="1.1" id="Layer_1" xmlns="http://www.w3.org/2000/svg" xmlns:xlink="http://www.w3.org/1999/xlink" x="0px" y="0px"
	 viewBox="0 0 290 267" enable-background="new 0 0 290 267" xml:space="preserve">
<path fill="#FEFEFE" d="M95.1,244.6h15.7v-3.1h-9.2l4.8-4.7c2.6-2.5,4.3-5,4.3-7.8c0-3.8-2.7-6.4-7.2-6.4c-4.6,0-7.4,2.7-7.7,7.5
	h3.7c0.4-3.1,1.7-4.3,3.9-4.3c2.1,0,3.2,1.3,3.2,3.3c0,2.1-1.2,4-3.3,6.2l-8.2,8.7V244.6z"/>
<path fill="#FEFEFE" d="M111.5,244.6h15.7v-3.1H118l4.8-4.7c2.6-2.5,4.3-5,4.3-7.8c0-3.8-2.7-6.4-7.2-6.4c-4.6,0-7.4,2.7-7.7,7.5
	h3.7c0.4-3.1,1.7-4.3,3.9-4.3c2.1,0,3.2,1.3,3.2,3.3c0,2.1-1.2,4-3.3,6.2l-8.2,8.7V244.6z"/>
<path fill="#FEFEFE" d="M136.7,231.8c-1.9,0-3.5-1.2-3.5-3.1c0-1.9,1.5-3.1,3.4-3.1c1.9,0,3.4,1.2,3.4,3.1
	C140.1,230.6,138.7,231.8,136.7,231.8 M136.7,241.9c-2.2,0-4.1-1.3-4.1-3.7c0-2.4,1.9-3.7,4.1-3.7c2.2,0,4,1.3,4,3.7
	C140.7,240.5,139,241.9,136.7,241.9z M136.7,244.9c4.4,0,8.1-2.3,8.1-6.6c0-2.6-1.5-4.5-4-5.4c1.9-0.9,3.2-2.3,3.2-4.6
	c0-3.6-3.4-5.8-7.3-5.8c-3.8,0-7.3,2.2-7.3,5.8c0,2.2,1.2,3.7,3.2,4.5c-2.4,0.9-4.1,2.8-4.1,5.5
	C128.5,242.7,132.4,244.9,136.7,244.9z"/>
<path fill="#FEFEFE" d="M150,237.2l6.5-11.2v11.2H150z M156.4,244.6h3.9v-4.4h2.9v-3h-2.9v-14.3h-5.1l-9.6,15.9v1.4h10.8V244.6z"/>
<path fill="#FEFEFE" d="M175.9,244.9c4.7,0,8-2.9,8-7.5c0-4.6-2.8-7.3-6.7-7.3c-2.3,0-3.8,0.9-4.7,1.8l0-5.9h10.1v-3.2h-13.2
	l-0.2,12.1h2.1c1-1.1,2.3-1.9,4.5-1.9c2.4,0,3.9,1.7,3.9,4.3c0,2.7-1.4,4.4-3.9,4.4c-2.8,0-3.6-1.4-3.9-3.4h-3.8
	C168.4,242.1,170.8,244.9,175.9,244.9"/>
<path fill="#FEFEFE" d="M193.8,241.9c-2.5,0-4.2-1.7-4.2-4.6c0-2.4,1.7-4.1,4.2-4.1c2.5,0,4.1,1.8,4.1,4.4
	C197.9,240.2,196.3,241.9,193.8,241.9 M193.9,244.9c4.9,0,8-3,8-7.4c0-4.2-3-7.1-7.1-7.1c-2.6,0-4.4,1.1-5.4,2.8c0.1-5,2-7.5,5-7.5
	c2.1,0,2.9,1,3.3,2.6h3.8c-0.5-3.8-3.1-5.7-7.1-5.7c-5.2,0-9,4.1-9,11.6v0.5C185.4,240.5,187.6,244.9,193.9,244.9z"/>
<path fill="#FEFEFE" d="M210.8,244.9c4.7,0,8-2.9,8-7.5c0-4.6-2.8-7.3-6.7-7.3c-2.3,0-3.8,0.9-4.7,1.8l0-5.9h10.1v-3.2h-13.2
	l-0.2,12.1h2.1c1-1.1,2.3-1.9,4.5-1.9c2.4,0,3.9,1.7,3.9,4.3c0,2.7-1.4,4.4-3.9,4.4c-2.8,0-3.6-1.4-3.9-3.4h-3.8
	C203.3,242.1,205.7,244.9,210.8,244.9"/>
<polygon fill="#FEFEFE" points="222.1,244.6 226.3,244.6 234.2,223.4 234.2,222.9 219,222.9 219,226.2 229.1,226.2 "/>
<g>
	<defs>
		<path id="SVGID_1_" d="M70.1,241.5c1.3,0,2.4-0.4,3.3-1.2l-1-1.4c-0.6,0.6-1.4,0.9-2.3,0.9c-1.9,0-3.4-1.5-3.4-3.4
			c0-1.9,1.5-3.4,3.4-3.4c1.9,0,3.4,1.5,3.4,3.4c0,0.6-0.1,1.1-0.4,1.6l1.6,0.6c0.3-0.6,0.5-1.4,0.5-2.1c0-2.8-2.3-5.1-5.1-5.1
			c-2.8,0-5.1,2.3-5.1,5.1C64.9,239.2,67.2,241.5,70.1,241.5z M75.1,222.3L75.1,222.3L75.1,222.3L75.1,222.3L75.1,222.3h-5.1h-5h0h0
			h0h0l-0.2,0v0c-0.1,0-0.3,0-0.4,0h0l0,0l-0.2,0l0,0l0,0h0c-0.1,0-0.1,0-0.2,0l0,0h0l0,0l-0.1,0l0,0l0,0l0,0l0,0l-0.1,0l0,0l-0.1,0
			l0,0l0,0l0,0l0,0l0,0l-0.1,0l0,0l0,0l0,0l0,0c-3.9,0.8-7,4.1-7.4,8.1h-0.1c0,0.6,0.5,1.1,1.1,1.1h4c1.4,0,2.6-1.2,2.6-2.6v-0.7
			c0-0.9,0.8-1.7,1.7-1.7h5h5c0.9,0,1.7,0.8,1.7,1.7v0.7c0,1.4,1.2,2.6,2.6,2.6h4c0.6,0,1.1-0.5,1.1-1.1h-0.1
			c-0.5-4-3.5-7.3-7.4-8.1l0,0l0,0l0,0l0,0l-0.1,0l0,0l0,0l0,0l0,0l0,0l-0.1,0l0,0l-0.1,0l0,0l0,0l0,0l0,0l-0.1,0l0,0h0l0,0
			c-0.1,0-0.1,0-0.2,0h0l0,0l0,0l-0.2,0l0,0h0c-0.1,0-0.3,0-0.4,0v0L75.1,222.3z M65.1,227.6h1.5c0.5,0,1,0.4,1.1,0.9v0.1
			c0,0.5,0.4,0.9,0.9,0.9h1.6h1.6c0.5,0,0.9-0.4,0.9-0.9v-0.1c0.1-0.5,0.5-0.9,1.1-0.9H75c0.6,0,1.1,0.5,1.1,1.1v1.6v0v0v0
			c0,0.1,0,1.5,1,2.7l5.5,6.7c1.1,1.3,1.9,4.8-2.6,4.8h-9.9h-9.9c-4.5,0-3.7-3.5-2.6-4.8L63,233c1-1.2,1-2.6,1-2.7v0v0v0v-1.6
			C64.1,228.1,64.5,227.6,65.1,227.6z"/>
	</defs>
	<clipPath id="SVGID_2_">
		<use xlink:href="#SVGID_1_"  overflow="visible"/>
	</clipPath>
	<linearGradient id="SVGID_3_" gradientUnits="userSpaceOnUse" x1="55.73" y1="233.3968" x2="84.45" y2="233.3968">
		<stop  offset="0" style="stop-color:#BC7B38"/>
		<stop  offset="0.45" style="stop-color:#EFAE44"/>
		<stop  offset="0.55" style="stop-color:#EFAE44"/>
		<stop  offset="1" style="stop-color:#BC7B38"/>
	</linearGradient>
	<rect x="55.6" y="222.3" clip-path="url(#SVGID_2_)" fill="url(#SVGID_3_)" width="28.9" height="22.3"/>
</g>
<path fill-rule="evenodd" clip-rule="evenodd" fill="#FEFEFE" d="M163.6,258.3c0-0.8-0.2-1.5-1.2-1.5c-1,0-1.2,0.7-1.2,1.6
	c0,0.9,0.3,1.5,1.2,1.5C163.3,259.9,163.6,259.2,163.6,258.3 M95.9,259c0.5-0.2,0.9-0.6,0.9-1.2c0-0.3-0.1-0.6-0.3-0.8
	c-0.2-0.2-0.5-0.3-0.8-0.3c-0.2,0-0.4,0.1-0.6,0.3c-0.1,0.2-0.2,0.4-0.2,0.7C94.8,258.3,95.3,258.7,95.9,259z M98.5,257.1
	c0.1,0.2,0.1,0.5,0.1,0.7c0,0.8-0.2,1.5-0.8,2c0.4,0.2,0.8,0.4,1.2,0.4c0.6,0,0.9-0.2,0.9-0.8C99.9,258.8,99.1,257.8,98.5,257.1z
	 M89.5,258.3c0-0.8-0.2-1.5-1.2-1.5c-1,0-1.2,0.7-1.2,1.6c0,0.9,0.3,1.5,1.2,1.5C89.3,259.9,89.5,259.1,89.5,258.3z M71.9,259.6
	v-1.3c0-0.4-0.1-0.7-0.3-1c-0.2-0.3-0.5-0.5-0.9-0.5c-0.4,0-0.7,0.1-0.9,0.4c-0.1,0.3-0.2,0.8-0.2,1.1c0,0.5,0.2,0.9,0.7,1.1
	C70.8,259.6,71.4,259.6,71.9,259.6z M232.5,266.2c0,0.7-0.5,1-1.1,1c-0.7,0-1.2-0.2-1.2-1c0-0.7,0.4-1.1,1.1-1.1
	c0.3,0,0.6,0.1,0.9,0.3C232.3,265.6,232.5,265.9,232.5,266.2z M231,264.1c0,0.7-0.5,1-1.1,1c-0.7,0-1.2-0.2-1.2-1
	c0-0.3,0.1-0.6,0.3-0.8c0.2-0.2,0.5-0.3,0.8-0.3C230.5,263,231,263.3,231,264.1z M234,264.1c0,0.7-0.5,1-1.1,1c-0.7,0-1.2-0.2-1.2-1
	c0-0.3,0.1-0.6,0.3-0.8c0.2-0.2,0.5-0.3,0.8-0.3C233.5,263,234,263.3,234,264.1z M228.4,261.5c-0.8-0.1-1.7-0.2-2.2-0.8
	c-0.5-0.4-0.6-1.1-0.6-1.7v-7.5h1.8v6.8c0,0.3,0,1,0.3,1.2c0.2,0.1,1.1,0.2,1.3,0.2h2.3c0.2,0,0.6,0,0.8-0.2
	c0.2-0.2,0.2-0.6,0.2-0.8v-2.3h1.8v2.5c0,0.7-0.2,1.3-0.6,1.8c-0.4,0.6-1,0.8-1.7,0.8L228.4,261.5L228.4,261.5z M215.8,260.5
	c-0.5,0.6-1.2,1-2,1h-2c-0.7,0-1.4-0.5-1.9-1c-0.5,0.7-1.2,1-2.1,1h-4.9l-0.3-1.8h5.1c0.3,0,0.7,0,0.7-0.4c0-0.2-0.1-0.3-0.2-0.5
	l-3.6-3.8l1.3-1.3l4.8,5.1c0.2,0.2,0.6,0.6,0.8,0.7c0.3,0.1,0.6,0.2,0.9,0.2h1.3c0.7,0,0.9-0.4,0.9-1v-2.3h1.8v2.4
	c0,0.3,0.1,0.6,0.3,0.8c0.2,0.2,0.5,0.3,0.9,0.3c0.6,0,0.9-0.2,0.9-0.8v-2.7h1.8v2.4c0,0.3,0.1,0.6,0.3,0.8c0.2,0.2,0.5,0.3,0.8,0.3
	c0.6,0,0.9-0.2,0.9-0.8v-2.7h1.8v2.5c0,0.7-0.1,1.4-0.6,2c-0.4,0.6-1.1,0.9-1.8,0.9c-0.8,0-1.5-0.4-2.1-1c-0.5,0.5-1.1,1-1.9,1
	C217,261.7,216.3,261.1,215.8,260.5z M200.4,261.5h-1.8v-10.2h1.8V261.5z M196.2,261.1c0,1.1-0.3,2.2-1.1,3
	c-0.8,0.9-1.8,1.3-2.9,1.3H190l-0.3-1.9h1.9c0.7,0,1.3-0.1,1.8-0.5c0.6-0.4,0.9-0.9,0.9-1.6v-5.1h1.9V261.1z M191.2,261.5h-1.8
	v-10.2h1.8V261.5z M187.2,261.1c0,1.1-0.3,2.2-1.1,3.1c-0.8,0.9-1.8,1.2-3,1.2h-2.4c-1.1,0-2-0.4-2.8-1.3c-0.7-0.8-1.1-1.8-1.1-2.9
	v-3.4h1.8v3.6c0,0.6,0.2,1.1,0.7,1.5c0.5,0.4,1,0.6,1.6,0.6h2c0.6,0,1.2-0.2,1.6-0.6c0.5-0.4,0.7-0.9,0.7-1.5v-5.1h1.8V261.1z
	 M182.7,256.1c0,0.3-0.1,0.6-0.4,0.8c-0.2,0.2-0.5,0.4-0.9,0.4c-0.8,0-1.3-0.4-1.3-1.2c0-0.8,0.5-1.1,1.2-1.1
	C182.2,255,182.7,255.3,182.7,256.1z M174.4,260.5c0,0.8-0.5,1.2-1.3,1.2c-0.8,0-1.2-0.4-1.2-1.2c0-0.8,0.6-1.1,1.3-1.1
	C173.9,259.4,174.4,259.7,174.4,260.5z M169.2,261.1c0,1.1-0.3,2.2-1.1,3c-0.8,0.9-1.8,1.3-2.9,1.3H163l-0.3-1.9h1.9
	c0.7,0,1.3-0.1,1.9-0.5c0.6-0.4,0.9-0.9,0.9-1.6v-5.1h1.9V261.1z M169.1,252.2c0,0.3-0.1,0.6-0.4,0.9c-0.2,0.2-0.5,0.4-0.9,0.4
	c-0.8,0-1.3-0.4-1.3-1.2c0-0.8,0.6-1.1,1.3-1.1C168.6,251.1,169.1,251.4,169.1,252.2z M153,261c-0.1,1.1-0.3,2.1-1,2.9
	c-0.8,1-1.8,1.5-3.1,1.5h-2.1l-0.3-1.8h2.3c0.6,0,1.2-0.2,1.6-0.6c0.5-0.4,0.7-0.9,0.7-1.5v-5.1h1.8v2.4c0,0.8,0.9,0.9,1.6,0.9h3.5
	c0.2,0,1.2,0,1.4-0.2c0.1-0.1,0.1-0.9,0.1-1.1c0-1.9,0.8-3.3,2.9-3.3c0.9,0,1.6,0.4,2.1,1.1c0.5,0.7,0.7,1.5,0.7,2.3
	c0,0.8-0.2,1.6-0.7,2.3c-0.5,0.7-1.3,1-2.1,1c-0.7,0-1.2-0.2-1.8-0.6c-0.5,0.2-1.3,0.3-1.8,0.3v0H154v-0.1
	C153.6,261.4,153.3,261.2,153,261z M148.6,259.3c0,0.7-0.2,1.2-0.8,1.6c-0.5,0.4-1.1,0.6-1.7,0.6h-5l-0.3-1.8h5.1
	c0.3,0,0.7-0.1,0.7-0.5c0-0.2-0.1-0.3-0.2-0.5l-3.6-3.8l1.2-1.3l3.6,3.8C148.4,258,148.6,258.6,148.6,259.3z M138.5,260.5
	c0,0.8-0.5,1.2-1.3,1.2c-0.8,0-1.2-0.4-1.2-1.2c0-0.8,0.6-1.1,1.3-1.1C138,259.4,138.5,259.7,138.5,260.5z M132.1,254
	c0,0.3-0.1,0.6-0.4,0.9c-0.2,0.2-0.5,0.4-0.9,0.4c-0.8,0-1.3-0.4-1.3-1.2c0-0.8,0.6-1.1,1.3-1.1C131.5,253,132.1,253.2,132.1,254z
	 M125.7,264.2c0,0.3-0.1,0.6-0.4,0.9c-0.2,0.2-0.5,0.4-0.9,0.4c-0.8,0-1.3-0.4-1.3-1.2c0-0.8,0.5-1.1,1.3-1.1
	C125.2,263.1,125.7,263.4,125.7,264.2z M120.9,260.7c-0.5,0.6-1.1,0.9-1.9,0.9c-0.8,0-1.5-0.4-2-1c-0.5,0.6-1.1,1-1.9,1
	c-0.5,0-1-0.2-1.4-0.5c-0.1,1-0.4,2-1,2.9c-0.8,0.9-1.8,1.4-3,1.4h-2.4c-1.1,0-2.1-0.4-2.9-1.2c-0.8-0.8-1.1-1.8-1.1-2.9v-3.4h1.8
	v3.4c0,0.6,0.2,1.2,0.6,1.6c0.5,0.4,1,0.6,1.7,0.6h2c0.6,0,1.2-0.2,1.7-0.6c0.5-0.4,0.7-1,0.7-1.6v-5h1.8v2.5c0,0.3,0.1,0.6,0.3,0.8
	c0.2,0.2,0.5,0.3,0.8,0.3c0.6,0,1-0.2,1-0.8v-2.7h1.8v2.4c0,0.3,0.1,0.6,0.3,0.8c0.2,0.2,0.5,0.3,0.8,0.3c0.6,0,0.9-0.2,0.9-0.8
	v-2.7h1.8v2.5c0,0.7,1.1,0.8,1.6,0.8c0.4,0,2,0,2.3-0.1c0.4-0.1,0.4-0.9,0.4-1.3c0-0.3,0-0.6,0-0.9c0-0.3,0-0.6,0-0.9v-0.1h1.9v2.3
	c0,0.4,0.1,0.7,0.4,0.9c0.3,0.1,0.8,0.2,1.1,0.2c0.3,0,1.8,0,2.1-0.1c0.4-0.1,0.4-0.9,0.4-1.3c0-0.3,0-0.6,0-0.9c0-0.3,0-0.6,0-0.9
	v-0.1h1.9v2.5c0,0.7-0.2,1.3-0.7,1.8c-0.5,0.5-1,0.8-1.7,0.8h-2.5c-0.7,0-1.4-0.1-1.9-0.6c-0.4,0.3-0.9,0.6-1.5,0.6h-2.7
	C121.9,261.5,121.3,261.2,120.9,260.7z M116.2,254.5c0,0.3-0.1,0.6-0.3,0.8c-0.2,0.2-0.5,0.3-0.8,0.3c-0.3,0-0.6-0.1-0.8-0.3
	c-0.3-0.2-0.4-0.5-0.4-0.8c0-0.7,0.5-1,1.2-1C115.6,253.5,116.2,253.7,116.2,254.5z M119.2,254.5c0,0.3-0.1,0.6-0.3,0.8
	c-0.2,0.2-0.5,0.3-0.8,0.3c-0.3,0-0.6-0.1-0.8-0.3c-0.3-0.2-0.4-0.5-0.4-0.8c0-0.7,0.5-1,1.2-1C118.6,253.5,119.2,253.7,119.2,254.5
	z M116.6,253.4c-0.3,0-0.6-0.1-0.9-0.3c-0.3-0.2-0.4-0.5-0.4-0.8c0-0.7,0.5-1,1.2-1c0.3,0,0.5,0.1,0.8,0.2c0.3,0.2,0.4,0.4,0.4,0.7
	c0,0.3-0.1,0.6-0.3,0.8C117.1,253.2,116.9,253.4,116.6,253.4z M83.8,261.4c-0.7-0.1-1.5-0.3-2-0.8c-0.5-0.4-0.6-1.1-0.6-1.7v-7.5
	h1.8v6.8c0,0.3,0,1,0.3,1.2c0.2,0.1,0.8,0.1,1,0.1c0.2,0,0.8,0,1-0.2c0.1-0.1,0.1-0.9,0.1-1.1c0-0.8,0.2-1.7,0.7-2.4
	c0.6-0.7,1.3-1,2.2-1c0.9,0,1.6,0.4,2.1,1.1c0.5,0.7,0.7,1.5,0.7,2.3c0,0.2,0,0.4,0,0.6c0,0.2,0.1,0.5,0.3,0.6
	c0.2,0.1,0.7,0.1,0.9,0.1l0.1,0v0h1.2c-0.4-0.6-0.7-1.3-0.7-2c0-0.7,0.2-1.4,0.8-1.9c0.5-0.5,1.2-0.8,1.9-0.8c0.3,0,0.6,0.1,0.9,0.2
	l-0.2-0.2l1.4-1.2l0.1,0.1c1.2,1.1,3.9,3.8,3.9,5.5c0,0.8-0.3,1.4-0.8,1.9c-0.5,0.5-1.1,0.9-1.9,0.9c-1.1,0-2.3-0.6-3.2-1.1
	c-0.7,0.3-1.5,0.5-2.2,0.5l-1.1,0v0l-0.4,0l-0.4,0v0c-0.2,0-0.4-0.1-0.5-0.1c-0.3-0.1-0.6-0.4-0.7-0.6c-0.5,0.7-1.3,1-2.1,1
	c-0.4,0-0.8-0.1-1.2-0.3c-0.3-0.2-0.6-0.4-0.8-0.6c-0.3,0.5-1,0.6-1.5,0.7v0h-0.1c-0.1,0-0.3,0-0.4,0c-0.1,0-0.2,0-0.3,0L83.8,261.4
	L83.8,261.4z M76.6,264.3c0,0.3-0.1,0.6-0.3,0.8c-0.2,0.2-0.5,0.3-0.8,0.3c-0.3,0-0.6-0.1-0.8-0.3c-0.3-0.2-0.4-0.5-0.4-0.8
	c0-0.7,0.5-1,1.1-1C76,263.3,76.6,263.6,76.6,264.3z M78.3,263.3c0.7,0,1.2,0.3,1.2,1c0,0.3-0.1,0.6-0.3,0.8
	c-0.2,0.2-0.5,0.3-0.8,0.3c-0.3,0-0.6-0.1-0.8-0.3c-0.3-0.2-0.4-0.5-0.4-0.8C77.2,263.6,77.7,263.3,78.3,263.3z M73.8,261.5
	c0,1.1-0.4,2-1.2,2.8c-0.8,0.8-1.8,1.1-3,1.1h-2.1l-0.3-1.8h2.1c0.7,0,1.2-0.2,1.7-0.6c0.5-0.4,0.7-0.9,0.7-1.5
	c-0.9,0-2-0.1-2.8-0.5c-1-0.6-1.3-1.5-1.3-2.6c0-1,0.2-2.2,1-2.8c0.5-0.4,1.3-0.5,1.9-0.5c1.2,0,2.1,0.5,2.6,1.6
	c0.3,0.8,0.4,2.1,0.4,3H77c0.2,0,0.6,0,0.8-0.2c0.2-0.2,0.2-0.6,0.2-0.8v-2.3h1.8v2.5c0,0.7-0.2,1.3-0.6,1.8c-0.4,0.5-1,0.8-1.7,0.8
	H73.8z M66,261.1c0,1.1-0.3,2.2-1.1,3.1c-0.8,0.9-1.8,1.2-3,1.2h-2.4c-1.1,0-2-0.4-2.8-1.3c-0.7-0.8-1.1-1.8-1.1-2.9v-3.4h1.8v3.6
	c0,0.6,0.2,1.1,0.7,1.5c0.5,0.4,1,0.6,1.6,0.6h2c0.6,0,1.2-0.2,1.6-0.6c0.5-0.4,0.7-0.9,0.7-1.5v-5.1H66V261.1z M61.6,256.1
	c0,0.3-0.1,0.6-0.4,0.8c-0.2,0.2-0.5,0.4-0.9,0.4c-0.8,0-1.3-0.4-1.3-1.2c0-0.8,0.5-1.1,1.2-1.1C61.1,255,61.6,255.3,61.6,256.1z"/>
<path fill="#FFFFFF" d="M16.1,127.7h34.3c4.7,0,8.5,3.8,8.5,8.5v21.8l-3.1,3.1v-12.3c0-3-2.4-5.4-5.4-5.4H28.7c-3,0-5.4,2.4-5.4,5.4
	v21.7c0,3,2.4,5.4,5.4,5.4h15.4l3.1,3.1H16.1c-4.7,0-8.5-3.8-8.5-8.5v-34.3C7.7,131.6,11.5,127.7,16.1,127.7 M238.6,187.4v0.1h-1.9
	v-0.1h0.2c0.2,0,0.3-0.1,0.4-0.2c0.1-0.1,0.1-0.2,0.1-0.5v-2.9c0-0.2,0-0.4,0-0.5c0-0.1-0.1-0.1-0.1-0.1c-0.1-0.1-0.2-0.1-0.3-0.1
	h-0.2V183h1.9v0.1h-0.2c-0.2,0-0.3,0.1-0.4,0.2c-0.1,0.1-0.1,0.2-0.1,0.5v2.9c0,0.2,0,0.4,0,0.5c0,0.1,0.1,0.1,0.1,0.1
	c0.1,0.1,0.2,0.1,0.3,0.1H238.6z M241.7,182.9v1.6h-0.1c0-0.3-0.1-0.5-0.2-0.7c-0.1-0.2-0.3-0.3-0.4-0.4c-0.2-0.1-0.4-0.2-0.6-0.2
	c-0.2,0-0.4,0.1-0.6,0.2c-0.2,0.1-0.2,0.3-0.2,0.5c0,0.1,0,0.3,0.1,0.4c0.1,0.2,0.5,0.4,1,0.7c0.4,0.2,0.7,0.4,0.9,0.5
	c0.2,0.1,0.3,0.3,0.4,0.4c0.1,0.2,0.1,0.3,0.1,0.5c0,0.3-0.1,0.6-0.4,0.9c-0.3,0.2-0.6,0.4-1,0.4c-0.1,0-0.3,0-0.4,0
	c-0.1,0-0.2-0.1-0.4-0.1c-0.2-0.1-0.4-0.1-0.4-0.1c-0.1,0-0.1,0-0.1,0c0,0-0.1,0.1-0.1,0.2H239v-1.5h0.1c0.1,0.3,0.1,0.6,0.2,0.7
	c0.1,0.2,0.2,0.3,0.4,0.4c0.2,0.1,0.4,0.2,0.7,0.2c0.3,0,0.5-0.1,0.7-0.2c0.2-0.1,0.2-0.3,0.2-0.5c0-0.1,0-0.2-0.1-0.3
	c-0.1-0.1-0.2-0.2-0.3-0.3c-0.1-0.1-0.3-0.2-0.7-0.4c-0.4-0.2-0.7-0.4-0.8-0.5c-0.2-0.1-0.3-0.3-0.4-0.4c-0.1-0.2-0.1-0.3-0.1-0.5
	c0-0.3,0.1-0.6,0.4-0.8c0.2-0.2,0.6-0.4,0.9-0.4c0.2,0,0.5,0.1,0.8,0.2c0.1,0.1,0.2,0.1,0.3,0.1c0.1,0,0.1,0,0.1-0.1
	c0,0,0.1-0.1,0.1-0.2H241.7z M244.7,182.9c0.6,0,1.1,0.2,1.5,0.7c0.4,0.4,0.6,1,0.6,1.7c0,0.7-0.2,1.3-0.6,1.7
	c-0.4,0.5-1,0.7-1.6,0.7c-0.6,0-1.1-0.2-1.6-0.7c-0.4-0.4-0.6-1-0.6-1.7c0-0.7,0.2-1.3,0.7-1.8C243.6,183.1,244.1,182.9,244.7,182.9
	z M244.6,183.1c-0.4,0-0.7,0.2-1,0.4c-0.3,0.4-0.5,0.9-0.5,1.6c0,0.7,0.2,1.3,0.5,1.7c0.2,0.3,0.6,0.5,1,0.5c0.4,0,0.8-0.2,1-0.5
	c0.3-0.3,0.4-0.9,0.4-1.6c0-0.8-0.2-1.3-0.5-1.7C245.4,183.3,245,183.1,244.6,183.1z M251.9,186.6l-0.3,0.9h-2.7v-0.1
	c0.8-0.7,1.3-1.3,1.7-1.7c0.3-0.5,0.5-0.9,0.5-1.2c0-0.3-0.1-0.5-0.3-0.7c-0.2-0.2-0.4-0.3-0.6-0.3c-0.2,0-0.4,0.1-0.6,0.2
	c-0.2,0.1-0.3,0.3-0.4,0.6h-0.1c0.1-0.4,0.2-0.7,0.4-0.9c0.2-0.2,0.5-0.3,0.9-0.3c0.4,0,0.7,0.1,0.9,0.4c0.2,0.2,0.4,0.5,0.4,0.8
	c0,0.2-0.1,0.5-0.2,0.7c-0.2,0.4-0.4,0.7-0.8,1.1c-0.6,0.6-0.9,1-1,1.1h1.2c0.2,0,0.4,0,0.5,0c0.1,0,0.2-0.1,0.3-0.1
	c0.1-0.1,0.1-0.1,0.2-0.2H251.9z M255.2,186.6l-0.3,0.9h-2.7v-0.1c0.8-0.7,1.3-1.3,1.7-1.7c0.3-0.5,0.5-0.9,0.5-1.2
	c0-0.3-0.1-0.5-0.3-0.7c-0.2-0.2-0.4-0.3-0.6-0.3c-0.2,0-0.4,0.1-0.6,0.2c-0.2,0.1-0.3,0.3-0.4,0.6h-0.1c0.1-0.4,0.2-0.7,0.4-0.9
	c0.2-0.2,0.5-0.3,0.9-0.3c0.4,0,0.7,0.1,0.9,0.4c0.2,0.2,0.4,0.5,0.4,0.8c0,0.2-0.1,0.5-0.2,0.7c-0.2,0.4-0.4,0.7-0.8,1.1
	c-0.6,0.6-0.9,1-1,1.1h1.2c0.2,0,0.4,0,0.5,0c0.1,0,0.2-0.1,0.3-0.1c0.1-0.1,0.1-0.1,0.2-0.2H255.2z M255.5,185.3
	c0-0.5,0.1-1,0.2-1.3c0.2-0.4,0.4-0.6,0.6-0.8c0.2-0.1,0.4-0.2,0.6-0.2c0.3,0,0.7,0.2,0.9,0.5c0.3,0.4,0.5,1,0.5,1.8
	c0,0.5-0.1,1-0.2,1.3c-0.2,0.4-0.3,0.6-0.6,0.8c-0.2,0.2-0.5,0.2-0.7,0.2c-0.4,0-0.8-0.3-1.1-0.8
	C255.6,186.4,255.5,185.9,255.5,185.3z M256.2,185.3c0,0.6,0.1,1.1,0.2,1.5c0.1,0.3,0.3,0.5,0.6,0.5c0.1,0,0.2-0.1,0.4-0.2
	c0.1-0.1,0.2-0.3,0.3-0.5c0.1-0.4,0.2-0.9,0.2-1.6c0-0.5-0.1-0.9-0.2-1.3c-0.1-0.3-0.2-0.4-0.3-0.5c-0.1-0.1-0.2-0.1-0.3-0.1
	c-0.2,0-0.3,0.1-0.4,0.2c-0.2,0.2-0.3,0.5-0.3,0.9C256.2,184.6,256.2,185,256.2,185.3z M258.7,185.3c0-0.5,0.1-1,0.2-1.3
	c0.2-0.4,0.4-0.6,0.6-0.8c0.2-0.1,0.4-0.2,0.6-0.2c0.3,0,0.7,0.2,0.9,0.5c0.3,0.4,0.5,1,0.5,1.8c0,0.5-0.1,1-0.2,1.3
	c-0.2,0.4-0.3,0.6-0.6,0.8c-0.2,0.2-0.5,0.2-0.7,0.2c-0.4,0-0.8-0.3-1.1-0.8C258.9,186.4,258.7,185.9,258.7,185.3z M259.4,185.3
	c0,0.6,0.1,1.1,0.2,1.5c0.1,0.3,0.3,0.5,0.6,0.5c0.1,0,0.2-0.1,0.4-0.2c0.1-0.1,0.2-0.3,0.3-0.5c0.1-0.4,0.2-0.9,0.2-1.6
	c0-0.5-0.1-0.9-0.2-1.3c-0.1-0.3-0.2-0.4-0.3-0.5c-0.1-0.1-0.2-0.1-0.3-0.1c-0.1,0-0.3,0.1-0.4,0.2c-0.2,0.2-0.3,0.5-0.3,0.9
	C259.4,184.6,259.4,185,259.4,185.3z M262,185.3c0-0.5,0.1-1,0.2-1.3c0.2-0.4,0.4-0.6,0.6-0.8c0.2-0.1,0.4-0.2,0.6-0.2
	c0.3,0,0.7,0.2,0.9,0.5c0.3,0.4,0.5,1,0.5,1.8c0,0.5-0.1,1-0.2,1.3c-0.2,0.4-0.3,0.6-0.6,0.8c-0.2,0.2-0.5,0.2-0.7,0.2
	c-0.4,0-0.8-0.3-1.1-0.8C262.1,186.4,262,185.9,262,185.3z M262.6,185.3c0,0.6,0.1,1.1,0.2,1.5c0.1,0.3,0.3,0.5,0.6,0.5
	c0.1,0,0.2-0.1,0.4-0.2c0.1-0.1,0.2-0.3,0.3-0.5c0.1-0.4,0.2-0.9,0.2-1.6c0-0.5-0.1-0.9-0.2-1.3c-0.1-0.3-0.2-0.4-0.3-0.5
	c-0.1-0.1-0.2-0.1-0.3-0.1c-0.2,0-0.3,0.1-0.4,0.2c-0.2,0.2-0.3,0.5-0.3,0.9C262.7,184.6,262.6,185,262.6,185.3z M265.9,184.4
	c0.1,0,0.2,0,0.3,0.1c0.1,0.1,0.1,0.2,0.1,0.3c0,0.1,0,0.2-0.1,0.3c-0.1,0.1-0.2,0.1-0.3,0.1c-0.1,0-0.2,0-0.3-0.1
	c-0.1-0.1-0.1-0.2-0.1-0.3c0-0.1,0-0.2,0.1-0.3C265.7,184.4,265.8,184.4,265.9,184.4z M265.9,186.8c0.1,0,0.2,0,0.3,0.1
	c0.1,0.1,0.1,0.2,0.1,0.3c0,0.1,0,0.2-0.1,0.3c-0.1,0.1-0.2,0.1-0.3,0.1c-0.1,0-0.2,0-0.3-0.1c-0.1-0.1-0.1-0.2-0.1-0.3
	c0-0.1,0-0.2,0.1-0.3C265.7,186.9,265.8,186.8,265.9,186.8z M269.8,186.6l-0.3,0.9h-2.7v-0.1c0.8-0.7,1.3-1.3,1.7-1.7
	c0.3-0.5,0.5-0.9,0.5-1.2c0-0.3-0.1-0.5-0.3-0.7c-0.2-0.2-0.4-0.3-0.6-0.3c-0.2,0-0.4,0.1-0.6,0.2c-0.2,0.1-0.3,0.3-0.4,0.6H267
	c0.1-0.4,0.2-0.7,0.4-0.9c0.2-0.2,0.5-0.3,0.9-0.3c0.4,0,0.7,0.1,0.9,0.4c0.2,0.2,0.4,0.5,0.4,0.8c0,0.2-0.1,0.5-0.2,0.7
	c-0.2,0.4-0.4,0.7-0.8,1.1c-0.6,0.6-0.9,1-1,1.1h1.2c0.2,0,0.4,0,0.5,0c0.1,0,0.2-0.1,0.3-0.1c0.1-0.1,0.1-0.1,0.2-0.2H269.8z
	 M270.2,185.3c0-0.5,0.1-1,0.2-1.3c0.2-0.4,0.4-0.6,0.6-0.8c0.2-0.1,0.4-0.2,0.6-0.2c0.3,0,0.7,0.2,0.9,0.5c0.3,0.4,0.5,1,0.5,1.8
	c0,0.5-0.1,1-0.2,1.3c-0.2,0.4-0.3,0.6-0.6,0.8c-0.2,0.2-0.5,0.2-0.7,0.2c-0.4,0-0.8-0.3-1.1-0.8
	C270.3,186.4,270.2,185.9,270.2,185.3z M270.8,185.3c0,0.6,0.1,1.1,0.2,1.5c0.1,0.3,0.3,0.5,0.6,0.5c0.1,0,0.2-0.1,0.4-0.2
	c0.1-0.1,0.2-0.3,0.3-0.5c0.1-0.4,0.2-0.9,0.2-1.6c0-0.5-0.1-0.9-0.2-1.3c-0.1-0.3-0.2-0.4-0.3-0.5c-0.1-0.1-0.2-0.1-0.3-0.1
	c-0.2,0-0.3,0.1-0.4,0.2c-0.2,0.2-0.3,0.5-0.3,0.9C270.9,184.6,270.8,185,270.8,185.3z M273.4,185.3c0-0.5,0.1-1,0.2-1.3
	c0.2-0.4,0.4-0.6,0.6-0.8c0.2-0.1,0.4-0.2,0.6-0.2c0.3,0,0.7,0.2,0.9,0.5c0.3,0.4,0.5,1,0.5,1.8c0,0.5-0.1,1-0.2,1.3
	c-0.2,0.4-0.3,0.6-0.6,0.8c-0.2,0.2-0.5,0.2-0.7,0.2c-0.4,0-0.8-0.3-1.1-0.8C273.5,186.4,273.4,185.9,273.4,185.3z M274.1,185.3
	c0,0.6,0.1,1.1,0.2,1.5c0.1,0.3,0.3,0.5,0.6,0.5c0.1,0,0.2-0.1,0.4-0.2c0.1-0.1,0.2-0.3,0.3-0.5c0.1-0.4,0.2-0.9,0.2-1.6
	c0-0.5-0.1-0.9-0.2-1.3c-0.1-0.3-0.2-0.4-0.3-0.5c-0.1-0.1-0.2-0.1-0.3-0.1c-0.1,0-0.3,0.1-0.4,0.2c-0.2,0.2-0.3,0.5-0.3,0.9
	C274.1,184.6,274.1,185,274.1,185.3z M279.4,183l-0.3,0.6h-1.4l-0.3,0.6c0.6,0.1,1.1,0.3,1.4,0.7c0.3,0.3,0.4,0.7,0.4,1.1
	c0,0.2,0,0.5-0.1,0.7c-0.1,0.2-0.2,0.4-0.4,0.5c-0.1,0.1-0.3,0.3-0.5,0.3c-0.3,0.1-0.5,0.2-0.8,0.2c-0.3,0-0.5,0-0.6-0.1
	c-0.1-0.1-0.2-0.2-0.2-0.3c0-0.1,0-0.1,0.1-0.2c0.1,0,0.1-0.1,0.2-0.1c0.1,0,0.1,0,0.2,0c0,0,0.1,0.1,0.2,0.1
	c0.2,0.1,0.3,0.2,0.5,0.2c0.3,0,0.5-0.1,0.7-0.3c0.2-0.2,0.3-0.4,0.3-0.7c0-0.3-0.1-0.5-0.3-0.8c-0.2-0.2-0.4-0.4-0.7-0.5
	c-0.2-0.1-0.6-0.2-1-0.2l0.9-1.8H279.4z M239.4,127.7h34.3c4.7,0,8.5,3.8,8.5,8.5v21.8l-3.1,3.1v-12.3c0-3-2.4-5.4-5.4-5.4H252
	c-3,0-5.4,2.4-5.4,5.4v21.7c0,3,2.4,5.4,5.4,5.4h15.4l3.1,3.1h-31.1c-4.7,0-8.5-3.8-8.5-8.5v-34.3
	C231,131.6,234.8,127.7,239.4,127.7z M252,154.8v1.3h-0.1c-0.1-0.3-0.2-0.6-0.5-0.8c-0.2-0.2-0.5-0.3-0.8-0.3
	c-0.2,0-0.5,0.1-0.7,0.2c-0.2,0.1-0.3,0.3-0.4,0.5c-0.1,0.3-0.2,0.6-0.2,0.9c0,0.3,0,0.6,0.1,0.9c0.1,0.3,0.2,0.5,0.4,0.6
	c0.2,0.1,0.4,0.2,0.7,0.2c0.2,0,0.5-0.1,0.7-0.2c0.2-0.1,0.4-0.3,0.6-0.5v0.3c-0.2,0.2-0.4,0.4-0.7,0.5c-0.2,0.1-0.5,0.2-0.8,0.2
	c-0.4,0-0.8-0.1-1.1-0.2c-0.3-0.2-0.6-0.4-0.7-0.7c-0.2-0.3-0.3-0.6-0.3-1c0-0.4,0.1-0.7,0.3-1c0.2-0.3,0.4-0.6,0.8-0.8
	c0.3-0.2,0.7-0.3,1-0.3c0.3,0,0.5,0.1,0.8,0.2c0.2,0.1,0.3,0.1,0.3,0.1c0.1,0,0.1,0,0.2-0.1c0,0,0.1-0.1,0.1-0.2H252z M254.6,157.3
	h-1.4c0,0.3,0.1,0.6,0.3,0.8c0.1,0.2,0.3,0.2,0.5,0.2c0.1,0,0.2,0,0.3-0.1c0.1-0.1,0.2-0.2,0.3-0.3l0.1,0.1
	c-0.1,0.3-0.3,0.5-0.5,0.6c-0.2,0.1-0.4,0.2-0.6,0.2c-0.4,0-0.7-0.2-0.9-0.4c-0.2-0.2-0.2-0.5-0.2-0.9c0-0.4,0.1-0.8,0.4-1
	c0.2-0.3,0.5-0.4,0.8-0.4c0.3,0,0.5,0.1,0.7,0.3C254.5,156.5,254.6,156.8,254.6,157.3z M253.9,157.1c0-0.3,0-0.5,0-0.6
	c0-0.1-0.1-0.2-0.2-0.3c0,0-0.1-0.1-0.2-0.1c-0.1,0-0.2,0-0.2,0.1c-0.1,0.2-0.2,0.4-0.2,0.7v0.1H253.9z M255.9,156.1l0,0.6
	c0.2-0.3,0.3-0.4,0.5-0.5c0.1-0.1,0.3-0.1,0.4-0.1c0.1,0,0.2,0,0.3,0.1c0.1,0.1,0.1,0.2,0.1,0.3c0,0.1,0,0.2-0.1,0.3
	c-0.1,0.1-0.1,0.1-0.2,0.1c-0.1,0-0.2,0-0.3-0.1c-0.1-0.1-0.1-0.1-0.1-0.1c0,0,0,0-0.1,0c-0.1,0-0.1,0-0.2,0.1
	c-0.1,0.1-0.1,0.2-0.2,0.3c-0.1,0.2-0.1,0.4-0.1,0.6l0,0.6v0.2c0,0.1,0,0.2,0,0.2c0,0.1,0.1,0.1,0.1,0.1c0,0,0.1,0,0.2,0v0.1h-1.4
	v-0.1c0.1,0,0.2,0,0.2-0.1c0-0.1,0.1-0.2,0.1-0.4v-1.5c0-0.2,0-0.2,0-0.3c0-0.1,0-0.1-0.1-0.1c0,0-0.1,0-0.2-0.1v-0.1H255.9z
	 M258.2,155.1v1h0.6v0.3h-0.6v1.6c0,0.2,0,0.3,0,0.3c0,0,0,0.1,0.1,0.1c0,0,0.1,0,0.1,0c0.1,0,0.2-0.1,0.3-0.3l0.1,0.1
	c-0.2,0.4-0.4,0.5-0.7,0.5c-0.2,0-0.3,0-0.4-0.1c-0.1-0.1-0.2-0.2-0.2-0.3c0-0.1,0-0.2,0-0.5v-1.4h-0.3v-0.1
	c0.2-0.2,0.4-0.3,0.6-0.5C257.9,155.5,258,155.3,258.2,155.1L258.2,155.1z M259.6,154.8c0.1,0,0.2,0,0.3,0.1
	c0.1,0.1,0.1,0.2,0.1,0.3s0,0.2-0.1,0.3c-0.1,0.1-0.2,0.1-0.3,0.1c-0.1,0-0.2,0-0.3-0.1c-0.1-0.1-0.1-0.2-0.1-0.3s0-0.2,0.1-0.3
	C259.4,154.8,259.5,154.8,259.6,154.8z M260,156.1v2.1c0,0.2,0,0.3,0.1,0.4c0,0.1,0.1,0.1,0.3,0.1v0.1h-1.4v-0.1
	c0.1,0,0.2,0,0.3-0.1c0,0,0.1-0.2,0.1-0.3v-1.5c0-0.2,0-0.3-0.1-0.4c0-0.1-0.1-0.1-0.3-0.1v-0.1H260z M261.5,156.1h1.5v2
	c0,0.2,0,0.3,0.1,0.4c0,0.1,0.1,0.1,0.2,0.1v0.1h-1.4v-0.1c0.1,0,0.2-0.1,0.2-0.1c0,0,0-0.2,0-0.3v-1.8h-0.7v1.8c0,0.2,0,0.3,0,0.3
	c0,0.1,0.1,0.1,0.2,0.1v0.1h-1.4v-0.1c0.1,0,0.2,0,0.3-0.1c0,0,0-0.2,0-0.3v-1.8h-0.3v-0.3h0.3c0-0.3,0-0.5,0.1-0.7
	c0.1-0.2,0.2-0.3,0.4-0.4c0.2-0.1,0.4-0.2,0.7-0.2c0.2,0,0.3,0,0.5,0.1c0.1,0,0.2,0.1,0.3,0.2c0.1,0.1,0.1,0.2,0.1,0.2
	c0,0.1,0,0.2-0.1,0.2c-0.1,0.1-0.2,0.1-0.3,0.1c-0.1,0-0.2,0-0.2-0.1c-0.1-0.1-0.1-0.1-0.1-0.2c0-0.1,0-0.1,0.1-0.2
	c0-0.1,0.1-0.1,0.1-0.1c0,0,0-0.1,0-0.1c0,0-0.1-0.1-0.3-0.1c-0.1,0-0.2,0-0.3,0.1c-0.1,0.1-0.1,0.1-0.2,0.2c0,0.1,0,0.2,0,0.4
	V156.1z M265.6,158L265.6,158c0,0.3-0.2,0.5-0.4,0.6c-0.2,0.1-0.4,0.2-0.6,0.2c-0.4,0-0.6-0.1-0.8-0.4c-0.2-0.3-0.3-0.6-0.3-0.9
	c0-0.4,0.1-0.7,0.3-0.9c0.2-0.3,0.5-0.5,1-0.5c0.3,0,0.5,0.1,0.6,0.2c0.2,0.1,0.2,0.3,0.2,0.5c0,0.1,0,0.2-0.1,0.3
	c-0.1,0.1-0.1,0.1-0.3,0.1c-0.1,0-0.2,0-0.3-0.1c-0.1-0.1-0.1-0.2-0.1-0.4c0-0.1,0-0.2-0.1-0.2c0,0-0.1-0.1-0.2-0.1
	c-0.1,0-0.2,0-0.2,0.1c-0.1,0.1-0.1,0.4-0.1,0.7c0,0.2,0,0.5,0.1,0.7c0.1,0.2,0.2,0.4,0.3,0.5c0.1,0.1,0.2,0.1,0.4,0.1
	c0.1,0,0.2,0,0.3-0.1C265.4,158.2,265.5,158.1,265.6,158z M267.3,158.3c-0.3,0.3-0.6,0.4-0.9,0.4c-0.1,0-0.3-0.1-0.4-0.1
	c-0.1-0.1-0.1-0.2-0.1-0.4c0-0.2,0.1-0.4,0.3-0.5c0.2-0.2,0.5-0.4,1.1-0.6v-0.3c0-0.2,0-0.3,0-0.4c0,0-0.1-0.1-0.1-0.1
	c-0.1,0-0.1-0.1-0.2-0.1c-0.1,0-0.2,0-0.3,0.1c-0.1,0-0.1,0.1-0.1,0.1c0,0,0,0.1,0.1,0.1c0.1,0.1,0.1,0.2,0.1,0.2
	c0,0.1,0,0.2-0.1,0.2c-0.1,0.1-0.2,0.1-0.3,0.1c-0.1,0-0.2,0-0.3-0.1c-0.1-0.1-0.1-0.2-0.1-0.2c0-0.1,0.1-0.3,0.2-0.4
	c0.1-0.1,0.3-0.2,0.4-0.3c0.2-0.1,0.4-0.1,0.6-0.1c0.2,0,0.4,0.1,0.6,0.2c0.1,0.1,0.2,0.2,0.3,0.3c0,0.1,0,0.3,0,0.5v1
	c0,0.1,0,0.2,0,0.2c0,0,0,0.1,0,0.1c0,0,0,0,0.1,0c0.1,0,0.1,0,0.2-0.1l0.1,0.1c-0.1,0.1-0.2,0.2-0.3,0.3c-0.1,0.1-0.2,0.1-0.3,0.1
	c-0.2,0-0.3,0-0.4-0.1C267.4,158.5,267.3,158.4,267.3,158.3z M267.3,158.1v-0.9c-0.2,0.1-0.4,0.3-0.5,0.4c-0.1,0.1-0.1,0.2-0.1,0.3
	c0,0.1,0,0.2,0.1,0.2c0,0.1,0.1,0.1,0.2,0.1C267.1,158.2,267.2,158.2,267.3,158.1z M269.6,155.1v1h0.6v0.3h-0.6v1.6
	c0,0.2,0,0.3,0,0.3c0,0,0,0.1,0.1,0.1c0,0,0.1,0,0.1,0c0.1,0,0.2-0.1,0.3-0.3l0.1,0.1c-0.2,0.4-0.4,0.5-0.7,0.5
	c-0.2,0-0.3,0-0.4-0.1c-0.1-0.1-0.2-0.2-0.2-0.3c0-0.1,0-0.2,0-0.5v-1.4h-0.3v-0.1c0.2-0.2,0.4-0.3,0.6-0.5
	C269.3,155.5,269.4,155.3,269.6,155.1L269.6,155.1z M271,154.8c0.1,0,0.2,0,0.3,0.1c0.1,0.1,0.1,0.2,0.1,0.3s0,0.2-0.1,0.3
	c-0.1,0.1-0.2,0.1-0.3,0.1c-0.1,0-0.2,0-0.3-0.1c-0.1-0.1-0.1-0.2-0.1-0.3s0-0.2,0.1-0.3C270.8,154.8,270.9,154.8,271,154.8z
	 M271.4,156.1v2.1c0,0.2,0,0.3,0.1,0.4c0,0.1,0.1,0.1,0.3,0.1v0.1h-1.4v-0.1c0.1,0,0.2,0,0.3-0.1c0,0,0.1-0.2,0.1-0.3v-1.5
	c0-0.2,0-0.3-0.1-0.4c0-0.1-0.1-0.1-0.3-0.1v-0.1H271.4z M273,156c0.2,0,0.4,0.1,0.6,0.2c0.2,0.1,0.3,0.3,0.4,0.5
	c0.1,0.2,0.2,0.5,0.2,0.7c0,0.4-0.1,0.7-0.3,0.9c-0.2,0.3-0.5,0.5-0.9,0.5c-0.4,0-0.7-0.1-0.9-0.4c-0.2-0.3-0.3-0.6-0.3-1
	c0-0.4,0.1-0.7,0.3-1C272.4,156.1,272.7,156,273,156z M273.1,156.2c-0.1,0-0.2,0-0.2,0.1c-0.1,0.1-0.1,0.2-0.1,0.4
	c0,0.2,0,0.5,0,0.9c0,0.2,0,0.4,0,0.6c0,0.1,0.1,0.2,0.1,0.3c0.1,0.1,0.1,0.1,0.2,0.1c0.1,0,0.2,0,0.2-0.1c0.1-0.1,0.1-0.2,0.1-0.3
	c0-0.2,0.1-0.5,0.1-1.1c0-0.3,0-0.5-0.1-0.7c0-0.1-0.1-0.2-0.2-0.3C273.2,156.2,273.1,156.2,273.1,156.2z M275.6,156.1v0.3
	c0.1-0.1,0.3-0.2,0.4-0.3c0.1-0.1,0.3-0.1,0.4-0.1c0.2,0,0.3,0,0.4,0.1c0.1,0.1,0.2,0.2,0.2,0.4c0,0.1,0,0.3,0,0.6v1
	c0,0.2,0,0.3,0.1,0.4c0,0,0.1,0.1,0.2,0.1v0.1H276v-0.1c0.1,0,0.2-0.1,0.2-0.1c0,0,0-0.2,0-0.3v-1.2c0-0.2,0-0.4,0-0.4
	c0-0.1,0-0.1-0.1-0.1c0,0-0.1,0-0.1,0c-0.2,0-0.3,0.1-0.4,0.3v1.4c0,0.2,0,0.3,0.1,0.4c0,0.1,0.1,0.1,0.2,0.1v0.1h-1.3v-0.1
	c0.1,0,0.2,0,0.2-0.1c0,0,0-0.2,0-0.4v-1.5c0-0.2,0-0.3-0.1-0.4c0,0-0.1-0.1-0.2-0.1v-0.1H275.6z M259.4,151.7
	c0.1,0.2,0.2,0.4,0.4,0.6c0.2,0.1,0.4,0.2,0.7,0.2c0.1,0,0.2,0,0.2,0v0.2c-0.3,0.1-0.5,0.1-0.8,0.1c-0.3,0-0.7-0.1-0.9-0.3
	c-0.3-0.2-0.5-0.4-0.6-0.7c-0.5-0.1-0.8-0.3-1.1-0.7c-0.3-0.4-0.4-0.8-0.4-1.3c0-0.6,0.2-1,0.6-1.4c0.4-0.4,0.9-0.6,1.5-0.6
	c0.6,0,1.1,0.2,1.4,0.6c0.4,0.4,0.6,0.8,0.6,1.4c0,0.5-0.1,0.9-0.4,1.3C260.2,151.4,259.8,151.6,259.4,151.7z M258.9,148
	c-0.3,0-0.6,0.2-0.8,0.5c-0.2,0.3-0.2,0.7-0.2,1.3c0,0.7,0.1,1.1,0.3,1.4c0.2,0.2,0.4,0.3,0.7,0.3c0.3,0,0.5-0.1,0.7-0.3
	c0.2-0.3,0.3-0.8,0.3-1.4c0-0.6-0.1-1.1-0.2-1.3C259.5,148.2,259.3,148,258.9,148z M263.5,150.6h-1.3L262,151
	c-0.1,0.1-0.1,0.2-0.1,0.3c0,0.1,0,0.2,0.1,0.2c0,0,0.2,0.1,0.4,0.1v0.1h-1.3v-0.1c0.1,0,0.2-0.1,0.3-0.2c0.1-0.1,0.2-0.3,0.3-0.6
	l1.4-3h0.1l1.4,3.1c0.1,0.3,0.2,0.5,0.3,0.6c0.1,0.1,0.2,0.1,0.3,0.1v0.1h-1.8v-0.1h0.1c0.1,0,0.3,0,0.3-0.1c0,0,0.1-0.1,0.1-0.1
	c0,0,0-0.1,0-0.1c0,0,0-0.1-0.1-0.2L263.5,150.6z M263.4,150.4l-0.6-1.3l-0.6,1.3H263.4z M268.9,150.3l-0.1,1.3h-3.4v-0.1h0.1
	c0.1,0,0.2,0,0.3-0.1c0,0,0.1-0.1,0.1-0.1c0,0,0-0.2,0-0.4v-2.5c0-0.2,0-0.3,0-0.4c0,0-0.1-0.1-0.1-0.1c-0.1,0-0.1-0.1-0.3-0.1h-0.1
	v-0.1h2v0.1h-0.2c-0.1,0-0.2,0-0.3,0.1c0,0-0.1,0.1-0.1,0.1c0,0,0,0.2,0,0.4v2.4c0,0.2,0,0.3,0,0.4c0,0.1,0.1,0.1,0.1,0.1
	c0,0,0.2,0,0.3,0h0.3c0.2,0,0.4,0,0.5-0.1c0.1-0.1,0.3-0.2,0.3-0.3c0.1-0.2,0.2-0.4,0.3-0.7H268.9z M174.1,185.1h2.1v-1.3
	c0-0.2,0-0.4,0-0.5c0-0.1-0.1-0.1-0.1-0.1c-0.1-0.1-0.2-0.1-0.3-0.1h-0.2V183h1.9v0.1h-0.2c-0.1,0-0.2,0-0.3,0.1
	c-0.1,0-0.1,0.1-0.1,0.2c0,0.1,0,0.2,0,0.4v2.9c0,0.2,0,0.4,0,0.5c0,0.1,0.1,0.1,0.1,0.1c0.1,0.1,0.2,0.1,0.3,0.1h0.2v0.1h-1.9v-0.1
	h0.2c0.2,0,0.3-0.1,0.4-0.2c0.1-0.1,0.1-0.2,0.1-0.5v-1.4h-2.1v1.4c0,0.2,0,0.4,0,0.5c0,0.1,0.1,0.1,0.1,0.1
	c0.1,0.1,0.2,0.1,0.3,0.1h0.2v0.1h-1.9v-0.1h0.2c0.2,0,0.3-0.1,0.4-0.2c0.1-0.1,0.1-0.2,0.1-0.5v-2.9c0-0.2,0-0.4,0-0.5
	c0-0.1-0.1-0.1-0.1-0.1c-0.1-0.1-0.2-0.1-0.3-0.1h-0.2V183h1.9v0.1h-0.2c-0.1,0-0.2,0-0.3,0.1c-0.1,0-0.1,0.1-0.1,0.2
	c0,0.1,0,0.2,0,0.4V185.1z M180.6,186h-1.8l-0.3,0.7c-0.1,0.2-0.1,0.3-0.1,0.4c0,0.1,0,0.1,0.1,0.2c0.1,0.1,0.2,0.1,0.4,0.1v0.1
	h-1.4v-0.1c0.2,0,0.3-0.1,0.4-0.1c0.1-0.1,0.2-0.3,0.4-0.6l1.6-3.7h0.1l1.6,3.8c0.1,0.3,0.2,0.5,0.3,0.6c0.1,0.1,0.2,0.1,0.4,0.2
	v0.1h-1.8v-0.1c0.2,0,0.3,0,0.4-0.1c0.1,0,0.1-0.1,0.1-0.2c0-0.1,0-0.3-0.1-0.5L180.6,186z M180.5,185.7l-0.8-1.8l-0.8,1.8H180.5z
	 M186.3,182.9l0.1,1.5h-0.1c-0.1-0.5-0.3-0.8-0.6-1c-0.3-0.2-0.6-0.3-0.9-0.3c-0.3,0-0.6,0.1-0.8,0.2c-0.2,0.2-0.4,0.4-0.6,0.7
	c-0.1,0.3-0.2,0.7-0.2,1.2c0,0.4,0.1,0.8,0.2,1.1c0.1,0.3,0.3,0.5,0.6,0.7c0.3,0.2,0.6,0.2,0.9,0.2c0.3,0,0.5-0.1,0.8-0.2
	c0.2-0.1,0.5-0.4,0.7-0.7l0.1,0.1c-0.2,0.4-0.5,0.7-0.8,0.9c-0.3,0.2-0.7,0.3-1.1,0.3c-0.7,0-1.3-0.3-1.7-0.8
	c-0.3-0.4-0.5-0.9-0.5-1.5c0-0.5,0.1-0.9,0.3-1.2c0.2-0.4,0.5-0.7,0.8-0.9c0.4-0.2,0.7-0.3,1.2-0.3c0.3,0,0.6,0.1,1,0.2
	c0.1,0,0.2,0.1,0.2,0.1c0.1,0,0.1,0,0.2-0.1c0.1-0.1,0.1-0.1,0.1-0.3H186.3z M190.7,182.9l0.1,1.5h-0.1c-0.1-0.5-0.3-0.8-0.6-1
	c-0.3-0.2-0.6-0.3-0.9-0.3c-0.3,0-0.6,0.1-0.8,0.2c-0.2,0.2-0.4,0.4-0.6,0.7c-0.1,0.3-0.2,0.7-0.2,1.2c0,0.4,0.1,0.8,0.2,1.1
	c0.1,0.3,0.3,0.5,0.6,0.7c0.3,0.2,0.6,0.2,0.9,0.2c0.3,0,0.5-0.1,0.8-0.2c0.2-0.1,0.5-0.4,0.7-0.7l0.1,0.1c-0.2,0.4-0.5,0.7-0.8,0.9
	c-0.3,0.2-0.7,0.3-1.1,0.3c-0.7,0-1.3-0.3-1.7-0.8c-0.3-0.4-0.5-0.9-0.5-1.5c0-0.5,0.1-0.9,0.3-1.2c0.2-0.4,0.5-0.7,0.8-0.9
	c0.4-0.2,0.7-0.3,1.2-0.3c0.3,0,0.6,0.1,1,0.2c0.1,0,0.2,0.1,0.2,0.1c0.1,0,0.1,0,0.2-0.1c0.1-0.1,0.1-0.1,0.1-0.3H190.7z
	 M192.3,185.4v1.3c0,0.3,0,0.5,0.1,0.5c0.1,0.1,0.2,0.1,0.4,0.1h0.2v0.1H191v-0.1h0.2c0.2,0,0.3-0.1,0.4-0.2c0-0.1,0.1-0.2,0.1-0.5
	v-2.9c0-0.3,0-0.5-0.1-0.5c-0.1-0.1-0.2-0.1-0.4-0.1H191V183h1.7c0.4,0,0.7,0,1,0.1c0.2,0.1,0.4,0.2,0.6,0.4
	c0.2,0.2,0.2,0.4,0.2,0.7c0,0.4-0.1,0.7-0.4,0.9c-0.2,0.2-0.6,0.3-1,0.3c-0.1,0-0.2,0-0.4,0C192.6,185.4,192.5,185.4,192.3,185.4z
	 M192.3,185.2c0.1,0,0.2,0,0.3,0c0.1,0,0.2,0,0.2,0c0.2,0,0.4-0.1,0.6-0.3c0.2-0.2,0.3-0.4,0.3-0.7c0-0.2,0-0.4-0.1-0.5
	c-0.1-0.2-0.2-0.3-0.3-0.4c-0.1-0.1-0.3-0.1-0.5-0.1c-0.1,0-0.3,0-0.4,0.1V185.2z M165,127.7h34.3c4.7,0,8.5,3.8,8.5,8.5v21.8
	l-3.1,3.1v-12.3c0-3-2.4-5.4-5.4-5.4h-21.7c-3,0-5.4,2.4-5.4,5.4v21.7c0,3,2.4,5.4,5.4,5.4H193l3.1,3.1H165c-4.7,0-8.5-3.8-8.5-8.5
	v-34.3C156.5,131.6,160.3,127.7,165,127.7z M177.6,154.8v1.3h-0.1c-0.1-0.3-0.2-0.6-0.5-0.8c-0.2-0.2-0.5-0.3-0.8-0.3
	c-0.2,0-0.5,0.1-0.7,0.2c-0.2,0.1-0.3,0.3-0.4,0.5c-0.1,0.3-0.2,0.6-0.2,0.9c0,0.3,0,0.6,0.1,0.9c0.1,0.3,0.2,0.5,0.4,0.6
	c0.2,0.1,0.4,0.2,0.7,0.2c0.2,0,0.5-0.1,0.7-0.2c0.2-0.1,0.4-0.3,0.6-0.5v0.3c-0.2,0.2-0.4,0.4-0.7,0.5c-0.2,0.1-0.5,0.2-0.8,0.2
	c-0.4,0-0.8-0.1-1.1-0.2c-0.3-0.2-0.6-0.4-0.7-0.7c-0.2-0.3-0.3-0.6-0.3-1c0-0.4,0.1-0.7,0.3-1c0.2-0.3,0.4-0.6,0.8-0.8
	c0.3-0.2,0.7-0.3,1-0.3c0.3,0,0.5,0.1,0.8,0.2c0.2,0.1,0.3,0.1,0.3,0.1c0.1,0,0.1,0,0.2-0.1c0,0,0.1-0.1,0.1-0.2H177.6z
	 M180.2,157.3h-1.4c0,0.3,0.1,0.6,0.3,0.8c0.1,0.2,0.3,0.2,0.5,0.2c0.1,0,0.2,0,0.3-0.1c0.1-0.1,0.2-0.2,0.3-0.3l0.1,0.1
	c-0.1,0.3-0.3,0.5-0.5,0.6c-0.2,0.1-0.4,0.2-0.6,0.2c-0.4,0-0.7-0.2-0.9-0.4c-0.2-0.2-0.2-0.5-0.2-0.9c0-0.4,0.1-0.8,0.4-1
	c0.2-0.3,0.5-0.4,0.8-0.4c0.3,0,0.5,0.1,0.7,0.3C180.1,156.5,180.2,156.8,180.2,157.3z M179.5,157.1c0-0.3,0-0.5,0-0.6
	c0-0.1-0.1-0.2-0.2-0.3c0,0-0.1-0.1-0.2-0.1c-0.1,0-0.2,0-0.2,0.1c-0.1,0.2-0.2,0.4-0.2,0.7v0.1H179.5z M181.4,156.1l0,0.6
	c0.2-0.3,0.3-0.4,0.5-0.5c0.1-0.1,0.3-0.1,0.4-0.1c0.1,0,0.2,0,0.3,0.1c0.1,0.1,0.1,0.2,0.1,0.3c0,0.1,0,0.2-0.1,0.3
	c-0.1,0.1-0.1,0.1-0.2,0.1c-0.1,0-0.2,0-0.3-0.1c-0.1-0.1-0.1-0.1-0.1-0.1c0,0,0,0-0.1,0c-0.1,0-0.1,0-0.2,0.1
	c-0.1,0.1-0.1,0.2-0.2,0.3c-0.1,0.2-0.1,0.4-0.1,0.6l0,0.6v0.2c0,0.1,0,0.2,0,0.2c0,0.1,0.1,0.1,0.1,0.1c0,0,0.1,0,0.2,0v0.1h-1.4
	v-0.1c0.1,0,0.2,0,0.2-0.1c0-0.1,0.1-0.2,0.1-0.4v-1.5c0-0.2,0-0.2,0-0.3c0-0.1,0-0.1-0.1-0.1c0,0-0.1,0-0.2-0.1v-0.1H181.4z
	 M183.8,155.1v1h0.6v0.3h-0.6v1.6c0,0.2,0,0.3,0,0.3c0,0,0,0.1,0.1,0.1c0,0,0.1,0,0.1,0c0.1,0,0.2-0.1,0.3-0.3l0.1,0.1
	c-0.2,0.4-0.4,0.5-0.7,0.5c-0.2,0-0.3,0-0.4-0.1c-0.1-0.1-0.2-0.2-0.2-0.3c0-0.1,0-0.2,0-0.5v-1.4h-0.3v-0.1
	c0.2-0.2,0.4-0.3,0.6-0.5C183.4,155.5,183.6,155.3,183.8,155.1L183.8,155.1z M185.2,154.8c0.1,0,0.2,0,0.3,0.1
	c0.1,0.1,0.1,0.2,0.1,0.3s0,0.2-0.1,0.3c-0.1,0.1-0.2,0.1-0.3,0.1s-0.2,0-0.3-0.1c-0.1-0.1-0.1-0.2-0.1-0.3s0-0.2,0.1-0.3
	C184.9,154.8,185,154.8,185.2,154.8z M185.6,156.1v2.1c0,0.2,0,0.3,0.1,0.4c0,0.1,0.1,0.1,0.3,0.1v0.1h-1.4v-0.1
	c0.1,0,0.2,0,0.3-0.1c0,0,0.1-0.2,0.1-0.3v-1.5c0-0.2,0-0.3-0.1-0.4c0-0.1-0.1-0.1-0.3-0.1v-0.1H185.6z M187,156.1h1.5v2
	c0,0.2,0,0.3,0.1,0.4c0,0.1,0.1,0.1,0.2,0.1v0.1h-1.4v-0.1c0.1,0,0.2-0.1,0.2-0.1c0,0,0-0.2,0-0.3v-1.8H187v1.8c0,0.2,0,0.3,0,0.3
	c0,0.1,0.1,0.1,0.2,0.1v0.1h-1.4v-0.1c0.1,0,0.2,0,0.3-0.1c0,0,0-0.2,0-0.3v-1.8h-0.3v-0.3h0.3c0-0.3,0-0.5,0.1-0.7
	c0.1-0.2,0.2-0.3,0.4-0.4c0.2-0.1,0.4-0.2,0.7-0.2c0.2,0,0.3,0,0.5,0.1c0.1,0,0.2,0.1,0.3,0.2c0.1,0.1,0.1,0.2,0.1,0.2
	c0,0.1,0,0.2-0.1,0.2c-0.1,0.1-0.2,0.1-0.3,0.1c-0.1,0-0.2,0-0.2-0.1c-0.1-0.1-0.1-0.1-0.1-0.2c0-0.1,0-0.1,0.1-0.2
	c0-0.1,0.1-0.1,0.1-0.1c0,0,0-0.1,0-0.1c0,0-0.1-0.1-0.3-0.1c-0.1,0-0.2,0-0.3,0.1c-0.1,0.1-0.1,0.1-0.2,0.2c0,0.1,0,0.2,0,0.4
	V156.1z M191.2,158L191.2,158c0,0.3-0.2,0.5-0.4,0.6c-0.2,0.1-0.4,0.2-0.6,0.2c-0.4,0-0.6-0.1-0.8-0.4c-0.2-0.3-0.3-0.6-0.3-0.9
	c0-0.4,0.1-0.7,0.3-0.9c0.2-0.3,0.5-0.5,0.9-0.5c0.3,0,0.5,0.1,0.6,0.2c0.2,0.1,0.2,0.3,0.2,0.5c0,0.1,0,0.2-0.1,0.3
	c-0.1,0.1-0.2,0.1-0.3,0.1c-0.1,0-0.2,0-0.3-0.1c-0.1-0.1-0.1-0.2-0.1-0.4c0-0.1,0-0.2-0.1-0.2c0,0-0.1-0.1-0.2-0.1
	c-0.1,0-0.2,0-0.2,0.1c-0.1,0.1-0.1,0.4-0.1,0.7c0,0.2,0,0.5,0.1,0.7c0.1,0.2,0.2,0.4,0.3,0.5c0.1,0.1,0.2,0.1,0.4,0.1
	c0.1,0,0.2,0,0.3-0.1C191,158.2,191,158.1,191.2,158z M192.9,158.3c-0.3,0.3-0.6,0.4-0.9,0.4c-0.2,0-0.3-0.1-0.4-0.1
	c-0.1-0.1-0.1-0.2-0.1-0.4c0-0.2,0.1-0.4,0.3-0.5c0.2-0.2,0.5-0.4,1.1-0.6v-0.3c0-0.2,0-0.3,0-0.4c0,0-0.1-0.1-0.1-0.1
	c-0.1,0-0.1-0.1-0.2-0.1c-0.1,0-0.2,0-0.3,0.1c0,0-0.1,0.1-0.1,0.1c0,0,0,0.1,0.1,0.1c0.1,0.1,0.1,0.2,0.1,0.2c0,0.1,0,0.2-0.1,0.2
	c-0.1,0.1-0.2,0.1-0.3,0.1c-0.1,0-0.2,0-0.3-0.1c-0.1-0.1-0.1-0.2-0.1-0.2c0-0.1,0.1-0.3,0.2-0.4c0.1-0.1,0.3-0.2,0.4-0.3
	c0.2-0.1,0.4-0.1,0.6-0.1c0.2,0,0.4,0.1,0.6,0.2c0.1,0.1,0.2,0.2,0.3,0.3c0,0.1,0,0.3,0,0.5v1c0,0.1,0,0.2,0,0.2c0,0,0,0.1,0,0.1
	c0,0,0,0,0.1,0c0,0,0.1,0,0.2-0.1l0.1,0.1c-0.1,0.1-0.2,0.2-0.3,0.3c-0.1,0.1-0.2,0.1-0.3,0.1c-0.1,0-0.3,0-0.4-0.1
	C192.9,158.5,192.9,158.4,192.9,158.3z M192.9,158.1v-0.9c-0.2,0.1-0.4,0.3-0.5,0.4c-0.1,0.1-0.1,0.2-0.1,0.3c0,0.1,0,0.2,0.1,0.2
	c0,0.1,0.1,0.1,0.2,0.1C192.6,158.2,192.8,158.2,192.9,158.1z M195.2,155.1v1h0.6v0.3h-0.6v1.6c0,0.2,0,0.3,0,0.3c0,0,0,0.1,0.1,0.1
	c0,0,0.1,0,0.1,0c0.1,0,0.2-0.1,0.3-0.3l0.1,0.1c-0.2,0.4-0.4,0.5-0.7,0.5c-0.2,0-0.3,0-0.4-0.1c-0.1-0.1-0.2-0.2-0.2-0.3
	c0-0.1,0-0.2,0-0.5v-1.4h-0.3v-0.1c0.2-0.2,0.4-0.3,0.6-0.5C194.8,155.5,195,155.3,195.2,155.1L195.2,155.1z M196.5,154.8
	c0.1,0,0.2,0,0.3,0.1c0.1,0.1,0.1,0.2,0.1,0.3s0,0.2-0.1,0.3c-0.1,0.1-0.2,0.1-0.3,0.1c-0.1,0-0.2,0-0.3-0.1
	c-0.1-0.1-0.1-0.2-0.1-0.3s0-0.2,0.1-0.3C196.3,154.8,196.4,154.8,196.5,154.8z M196.9,156.1v2.1c0,0.2,0,0.3,0.1,0.4
	c0,0.1,0.1,0.1,0.3,0.1v0.1h-1.4v-0.1c0.1,0,0.2,0,0.3-0.1c0,0,0.1-0.2,0.1-0.3v-1.5c0-0.2,0-0.3-0.1-0.4c0-0.1-0.1-0.1-0.3-0.1
	v-0.1H196.9z M198.6,156c0.2,0,0.4,0.1,0.6,0.2c0.2,0.1,0.3,0.3,0.4,0.5c0.1,0.2,0.2,0.5,0.2,0.7c0,0.4-0.1,0.7-0.3,0.9
	c-0.2,0.3-0.5,0.5-0.9,0.5c-0.4,0-0.7-0.1-0.9-0.4c-0.2-0.3-0.3-0.6-0.3-1c0-0.4,0.1-0.7,0.3-1C197.9,156.1,198.2,156,198.6,156z
	 M198.6,156.2c-0.1,0-0.2,0-0.2,0.1c-0.1,0.1-0.1,0.2-0.1,0.4c0,0.2,0,0.5,0,0.9c0,0.2,0,0.4,0,0.6c0,0.1,0.1,0.2,0.1,0.3
	c0.1,0.1,0.1,0.1,0.2,0.1c0.1,0,0.2,0,0.2-0.1c0.1-0.1,0.1-0.2,0.1-0.3c0-0.2,0.1-0.5,0.1-1.1c0-0.3,0-0.5-0.1-0.7
	c0-0.1-0.1-0.2-0.2-0.3C198.8,156.2,198.7,156.2,198.6,156.2z M201.2,156.1v0.3c0.1-0.1,0.3-0.2,0.4-0.3c0.1-0.1,0.3-0.1,0.4-0.1
	c0.2,0,0.3,0,0.4,0.1c0.1,0.1,0.2,0.2,0.2,0.4c0,0.1,0,0.3,0,0.6v1c0,0.2,0,0.3,0.1,0.4c0,0,0.1,0.1,0.2,0.1v0.1h-1.3v-0.1
	c0.1,0,0.2-0.1,0.2-0.1c0,0,0-0.2,0-0.3v-1.2c0-0.2,0-0.4,0-0.4c0-0.1,0-0.1-0.1-0.1c0,0-0.1,0-0.1,0c-0.2,0-0.3,0.1-0.4,0.3v1.4
	c0,0.2,0,0.3,0.1,0.4c0,0.1,0.1,0.1,0.2,0.1v0.1h-1.3v-0.1c0.1,0,0.2,0,0.2-0.1c0,0,0-0.2,0-0.4v-1.5c0-0.2,0-0.3-0.1-0.4
	c0,0-0.1-0.1-0.2-0.1v-0.1H201.2z M185,151.7c0.1,0.2,0.2,0.4,0.4,0.6c0.2,0.1,0.4,0.2,0.7,0.2c0.1,0,0.2,0,0.2,0v0.2
	c-0.3,0.1-0.5,0.1-0.8,0.1c-0.3,0-0.7-0.1-0.9-0.3c-0.3-0.2-0.5-0.4-0.6-0.7c-0.5-0.1-0.8-0.3-1.1-0.7c-0.3-0.4-0.4-0.8-0.4-1.3
	c0-0.6,0.2-1,0.6-1.4c0.4-0.4,0.9-0.6,1.5-0.6c0.6,0,1.1,0.2,1.4,0.6c0.4,0.4,0.6,0.8,0.6,1.4c0,0.5-0.1,0.9-0.4,1.3
	C185.8,151.4,185.4,151.6,185,151.7z M184.5,148c-0.3,0-0.6,0.2-0.8,0.5c-0.2,0.3-0.2,0.7-0.2,1.3c0,0.7,0.1,1.1,0.3,1.4
	c0.2,0.2,0.4,0.3,0.7,0.3c0.3,0,0.5-0.1,0.7-0.3c0.2-0.3,0.3-0.8,0.3-1.4c0-0.6-0.1-1.1-0.2-1.3C185.1,148.2,184.8,148,184.5,148z
	 M189.1,150.6h-1.3l-0.2,0.4c-0.1,0.1-0.1,0.2-0.1,0.3c0,0.1,0,0.2,0.1,0.2c0.1,0,0.2,0.1,0.4,0.1v0.1h-1.3v-0.1
	c0.1,0,0.2-0.1,0.3-0.2c0.1-0.1,0.2-0.3,0.3-0.6l1.4-3h0.1l1.4,3.1c0.1,0.3,0.2,0.5,0.3,0.6c0.1,0.1,0.2,0.1,0.3,0.1v0.1h-1.8v-0.1
	h0.1c0.1,0,0.3,0,0.3-0.1c0,0,0.1-0.1,0.1-0.1c0,0,0-0.1,0-0.1c0,0,0-0.1-0.1-0.2L189.1,150.6z M189,150.4l-0.6-1.3l-0.6,1.3H189z
	 M194.5,150.3l-0.1,1.3H191v-0.1h0.1c0.1,0,0.2,0,0.3-0.1c0,0,0.1-0.1,0.1-0.1c0,0,0-0.2,0-0.4v-2.5c0-0.2,0-0.3,0-0.4
	c0,0-0.1-0.1-0.1-0.1c-0.1,0-0.1-0.1-0.3-0.1H191v-0.1h2v0.1h-0.2c-0.1,0-0.2,0-0.3,0.1c0,0-0.1,0.1-0.1,0.1c0,0,0,0.2,0,0.4v2.4
	c0,0.2,0,0.3,0,0.4c0,0.1,0.1,0.1,0.1,0.1c0,0,0.2,0,0.3,0h0.3c0.2,0,0.4,0,0.5-0.1c0.1-0.1,0.3-0.2,0.3-0.3
	c0.1-0.2,0.2-0.4,0.3-0.7H194.5z M104.3,182.9v1.6h-0.1c0-0.3-0.1-0.5-0.2-0.7c-0.1-0.2-0.3-0.3-0.4-0.4c-0.2-0.1-0.4-0.2-0.6-0.2
	c-0.2,0-0.4,0.1-0.6,0.2c-0.2,0.1-0.2,0.3-0.2,0.5c0,0.1,0,0.3,0.1,0.4c0.1,0.2,0.5,0.4,1,0.7c0.4,0.2,0.7,0.4,0.9,0.5
	c0.2,0.1,0.3,0.3,0.4,0.4c0.1,0.2,0.1,0.3,0.1,0.5c0,0.3-0.1,0.6-0.4,0.9c-0.3,0.2-0.6,0.4-1,0.4c-0.1,0-0.3,0-0.4,0
	c-0.1,0-0.2-0.1-0.4-0.1c-0.2-0.1-0.4-0.1-0.4-0.1c-0.1,0-0.1,0-0.1,0c0,0-0.1,0.1-0.1,0.2h-0.1v-1.5h0.1c0.1,0.3,0.1,0.6,0.2,0.7
	c0.1,0.2,0.2,0.3,0.4,0.4c0.2,0.1,0.4,0.2,0.7,0.2c0.3,0,0.5-0.1,0.7-0.2c0.2-0.1,0.2-0.3,0.2-0.5c0-0.1,0-0.2-0.1-0.3
	c-0.1-0.1-0.2-0.2-0.3-0.3c-0.1-0.1-0.3-0.2-0.7-0.4c-0.4-0.2-0.7-0.4-0.8-0.5c-0.2-0.1-0.3-0.3-0.4-0.4c-0.1-0.2-0.1-0.3-0.1-0.5
	c0-0.3,0.1-0.6,0.4-0.8c0.2-0.2,0.6-0.4,0.9-0.4c0.2,0,0.5,0.1,0.8,0.2c0.1,0.1,0.2,0.1,0.3,0.1c0.1,0,0.1,0,0.1-0.1
	c0,0,0.1-0.1,0.1-0.2H104.3z M106.2,183.2v1.8h0.8c0.2,0,0.3,0,0.4-0.1c0.1-0.1,0.1-0.2,0.2-0.5h0.1v1.5h-0.1c0-0.2,0-0.3-0.1-0.4
	c0-0.1-0.1-0.1-0.2-0.2c-0.1,0-0.2-0.1-0.3-0.1h-0.8v1.4c0,0.2,0,0.4,0,0.5c0,0.1,0.1,0.1,0.1,0.1c0.1,0.1,0.2,0.1,0.3,0.1h0.2v0.1
	h-1.9v-0.1h0.2c0.2,0,0.3-0.1,0.4-0.2c0.1-0.1,0.1-0.2,0.1-0.5v-2.9c0-0.2,0-0.4,0-0.5c0-0.1-0.1-0.1-0.1-0.1
	c-0.1-0.1-0.2-0.1-0.3-0.1h-0.2V183h3.4l0,1h-0.1c-0.1-0.2-0.1-0.4-0.2-0.5c-0.1-0.1-0.2-0.2-0.3-0.2c-0.1,0-0.3-0.1-0.5-0.1H106.2z
	 M111.6,185.2c0.3,0.1,0.5,0.2,0.7,0.3c0.2,0.2,0.3,0.5,0.3,0.7c0,0.2-0.1,0.4-0.2,0.6c-0.1,0.2-0.3,0.4-0.6,0.5
	c-0.2,0.1-0.6,0.1-1.1,0.1h-2.1v-0.1h0.2c0.2,0,0.3-0.1,0.4-0.2c0-0.1,0.1-0.2,0.1-0.5v-2.9c0-0.3,0-0.5-0.1-0.5
	c-0.1-0.1-0.2-0.1-0.4-0.1h-0.2V183h1.9c0.4,0,0.7,0,0.9,0.1c0.3,0.1,0.6,0.2,0.8,0.4c0.2,0.2,0.3,0.4,0.3,0.7
	c0,0.2-0.1,0.4-0.2,0.6C112,185,111.8,185.1,111.6,185.2z M109.8,185c0.1,0,0.2,0,0.3,0c0.1,0,0.2,0,0.3,0c0.3,0,0.6,0,0.7-0.1
	c0.2-0.1,0.3-0.2,0.4-0.3c0.1-0.1,0.1-0.3,0.1-0.5c0-0.3-0.1-0.5-0.3-0.7c-0.2-0.2-0.5-0.3-0.9-0.3c-0.2,0-0.4,0-0.6,0.1V185z
	 M109.8,187.2c0.3,0.1,0.5,0.1,0.8,0.1c0.4,0,0.7-0.1,0.9-0.3c0.2-0.2,0.3-0.4,0.3-0.7c0-0.2,0-0.3-0.1-0.5
	c-0.1-0.2-0.3-0.3-0.5-0.4c-0.2-0.1-0.5-0.1-0.8-0.1c-0.1,0-0.3,0-0.4,0c-0.1,0-0.2,0-0.2,0V187.2z M115.9,185.2
	c0.3,0.1,0.5,0.2,0.7,0.3c0.2,0.2,0.3,0.5,0.3,0.7c0,0.2-0.1,0.4-0.2,0.6c-0.1,0.2-0.3,0.4-0.6,0.5c-0.2,0.1-0.6,0.1-1.1,0.1h-2.1
	v-0.1h0.2c0.2,0,0.3-0.1,0.4-0.2c0.1-0.1,0.1-0.2,0.1-0.5v-2.9c0-0.3,0-0.5-0.1-0.5c-0.1-0.1-0.2-0.1-0.4-0.1h-0.2V183h1.9
	c0.4,0,0.7,0,0.9,0.1c0.3,0.1,0.6,0.2,0.8,0.4c0.2,0.2,0.3,0.4,0.3,0.7c0,0.2-0.1,0.4-0.2,0.6C116.4,185,116.2,185.1,115.9,185.2z
	 M114.2,185c0.1,0,0.2,0,0.3,0c0.1,0,0.2,0,0.3,0c0.3,0,0.6,0,0.7-0.1c0.2-0.1,0.3-0.2,0.4-0.3c0.1-0.1,0.1-0.3,0.1-0.5
	c0-0.3-0.1-0.5-0.3-0.7c-0.2-0.2-0.5-0.3-0.9-0.3c-0.2,0-0.4,0-0.6,0.1V185z M114.2,187.2c0.3,0.1,0.5,0.1,0.8,0.1
	c0.4,0,0.7-0.1,0.9-0.3c0.2-0.2,0.3-0.4,0.3-0.7c0-0.2,0-0.3-0.1-0.5c-0.1-0.2-0.3-0.3-0.5-0.4c-0.2-0.1-0.5-0.1-0.8-0.1
	c-0.1,0-0.3,0-0.4,0c-0.1,0-0.2,0-0.2,0V187.2z M90.6,127.7h34.3c4.7,0,8.5,3.8,8.5,8.5v21.8l-3.1,3.1v-12.3c0-3-2.4-5.4-5.4-5.4
	h-21.7c-3,0-5.4,2.4-5.4,5.4v21.7c0,3,2.4,5.4,5.4,5.4h15.4l3.1,3.1H90.6c-4.7,0-8.5-3.8-8.5-8.5v-34.3
	C82.1,131.6,85.9,127.7,90.6,127.7z M103.2,154.8v1.3H103c-0.1-0.3-0.2-0.6-0.5-0.8c-0.2-0.2-0.5-0.3-0.8-0.3
	c-0.2,0-0.5,0.1-0.7,0.2c-0.2,0.1-0.3,0.3-0.4,0.5c-0.1,0.3-0.2,0.6-0.2,0.9c0,0.3,0,0.6,0.1,0.9c0.1,0.3,0.2,0.5,0.4,0.6
	c0.2,0.1,0.4,0.2,0.7,0.2c0.2,0,0.5-0.1,0.7-0.2c0.2-0.1,0.4-0.3,0.6-0.5v0.3c-0.2,0.2-0.4,0.4-0.7,0.5c-0.2,0.1-0.5,0.2-0.8,0.2
	c-0.4,0-0.8-0.1-1.1-0.2c-0.3-0.2-0.6-0.4-0.7-0.7c-0.2-0.3-0.3-0.6-0.3-1c0-0.4,0.1-0.7,0.3-1c0.2-0.3,0.4-0.6,0.8-0.8
	c0.3-0.2,0.7-0.3,1-0.3c0.3,0,0.5,0.1,0.8,0.2c0.2,0.1,0.3,0.1,0.3,0.1c0.1,0,0.1,0,0.2-0.1c0,0,0.1-0.1,0.1-0.2H103.2z
	 M105.7,157.3h-1.4c0,0.3,0.1,0.6,0.3,0.8c0.1,0.2,0.3,0.2,0.5,0.2c0.1,0,0.2,0,0.3-0.1c0.1-0.1,0.2-0.2,0.3-0.3l0.1,0.1
	c-0.1,0.3-0.3,0.5-0.5,0.6c-0.2,0.1-0.4,0.2-0.6,0.2c-0.4,0-0.7-0.2-0.9-0.4c-0.2-0.2-0.2-0.5-0.2-0.9c0-0.4,0.1-0.8,0.4-1
	c0.2-0.3,0.5-0.4,0.8-0.4c0.3,0,0.5,0.1,0.7,0.3C105.6,156.5,105.7,156.8,105.7,157.3z M105.1,157.1c0-0.3,0-0.5,0-0.6
	c0-0.1-0.1-0.2-0.2-0.3c0,0-0.1-0.1-0.2-0.1c-0.1,0-0.2,0-0.2,0.1c-0.1,0.2-0.2,0.4-0.2,0.7v0.1H105.1z M107,156.1l0,0.6
	c0.2-0.3,0.3-0.4,0.5-0.5c0.1-0.1,0.3-0.1,0.4-0.1c0.1,0,0.2,0,0.3,0.1c0.1,0.1,0.1,0.2,0.1,0.3c0,0.1,0,0.2-0.1,0.3
	c-0.1,0.1-0.1,0.1-0.2,0.1c-0.1,0-0.2,0-0.3-0.1c-0.1-0.1-0.1-0.1-0.1-0.1c0,0,0,0-0.1,0c-0.1,0-0.1,0-0.2,0.1
	c-0.1,0.1-0.1,0.2-0.2,0.3c-0.1,0.2-0.1,0.4-0.1,0.6l0,0.6v0.2c0,0.1,0,0.2,0,0.2c0,0.1,0.1,0.1,0.1,0.1c0,0,0.1,0,0.2,0v0.1h-1.4
	v-0.1c0.1,0,0.2,0,0.2-0.1c0-0.1,0.1-0.2,0.1-0.4v-1.5c0-0.2,0-0.2,0-0.3c0-0.1,0-0.1-0.1-0.1c0,0-0.1,0-0.2-0.1v-0.1H107z
	 M109.4,155.1v1h0.6v0.3h-0.6v1.6c0,0.2,0,0.3,0,0.3c0,0,0,0.1,0.1,0.1c0,0,0.1,0,0.1,0c0.1,0,0.2-0.1,0.3-0.3l0.1,0.1
	c-0.2,0.4-0.4,0.5-0.7,0.5c-0.2,0-0.3,0-0.4-0.1c-0.1-0.1-0.2-0.2-0.2-0.3c0-0.1,0-0.2,0-0.5v-1.4h-0.3v-0.1
	c0.2-0.2,0.4-0.3,0.6-0.5C109,155.5,109.2,155.3,109.4,155.1L109.4,155.1z M110.7,154.8c0.1,0,0.2,0,0.3,0.1
	c0.1,0.1,0.1,0.2,0.1,0.3s0,0.2-0.1,0.3c-0.1,0.1-0.2,0.1-0.3,0.1c-0.1,0-0.2,0-0.3-0.1c-0.1-0.1-0.1-0.2-0.1-0.3s0-0.2,0.1-0.3
	C110.5,154.8,110.6,154.8,110.7,154.8z M111.1,156.1v2.1c0,0.2,0,0.3,0.1,0.4c0,0.1,0.1,0.1,0.3,0.1v0.1H110v-0.1
	c0.1,0,0.2,0,0.3-0.1c0,0,0.1-0.2,0.1-0.3v-1.5c0-0.2,0-0.3-0.1-0.4c0-0.1-0.1-0.1-0.3-0.1v-0.1H111.1z M112.6,156.1h1.5v2
	c0,0.2,0,0.3,0.1,0.4c0,0.1,0.1,0.1,0.2,0.1v0.1h-1.4v-0.1c0.1,0,0.2-0.1,0.2-0.1c0,0,0-0.2,0-0.3v-1.8h-0.7v1.8c0,0.2,0,0.3,0,0.3
	c0,0.1,0.1,0.1,0.2,0.1v0.1h-1.4v-0.1c0.1,0,0.2,0,0.3-0.1c0,0,0-0.2,0-0.3v-1.8h-0.3v-0.3h0.3c0-0.3,0-0.5,0.1-0.7
	c0.1-0.2,0.2-0.3,0.4-0.4c0.2-0.1,0.4-0.2,0.7-0.2c0.2,0,0.3,0,0.5,0.1c0.1,0,0.2,0.1,0.3,0.2c0.1,0.1,0.1,0.2,0.1,0.2
	c0,0.1,0,0.2-0.1,0.2c-0.1,0.1-0.2,0.1-0.3,0.1c-0.1,0-0.2,0-0.2-0.1c-0.1-0.1-0.1-0.1-0.1-0.2c0-0.1,0-0.1,0.1-0.2
	c0-0.1,0.1-0.1,0.1-0.1c0,0,0-0.1,0-0.1c0,0-0.1-0.1-0.3-0.1c-0.1,0-0.2,0-0.3,0.1c-0.1,0.1-0.1,0.1-0.2,0.2c0,0.1,0,0.2,0,0.4
	V156.1z M116.7,158L116.7,158c0,0.3-0.2,0.5-0.4,0.6c-0.2,0.1-0.4,0.2-0.6,0.2c-0.3,0-0.6-0.1-0.8-0.4c-0.2-0.3-0.3-0.6-0.3-0.9
	c0-0.4,0.1-0.7,0.3-0.9c0.2-0.3,0.5-0.5,0.9-0.5c0.3,0,0.5,0.1,0.6,0.2c0.2,0.1,0.2,0.3,0.2,0.5c0,0.1,0,0.2-0.1,0.3
	c-0.1,0.1-0.2,0.1-0.3,0.1c-0.1,0-0.2,0-0.3-0.1c-0.1-0.1-0.1-0.2-0.1-0.4c0-0.1,0-0.2-0.1-0.2c0,0-0.1-0.1-0.2-0.1
	c-0.1,0-0.2,0-0.2,0.1c-0.1,0.1-0.1,0.4-0.1,0.7c0,0.2,0,0.5,0.1,0.7c0.1,0.2,0.2,0.4,0.3,0.5c0.1,0.1,0.2,0.1,0.4,0.1
	c0.1,0,0.2,0,0.3-0.1C116.5,158.2,116.6,158.1,116.7,158z M118.4,158.3c-0.3,0.3-0.6,0.4-0.9,0.4c-0.2,0-0.3-0.1-0.4-0.1
	c-0.1-0.1-0.1-0.2-0.1-0.4c0-0.2,0.1-0.4,0.3-0.5c0.2-0.2,0.5-0.4,1.1-0.6v-0.3c0-0.2,0-0.3,0-0.4c0,0-0.1-0.1-0.1-0.1
	c-0.1,0-0.1-0.1-0.2-0.1c-0.1,0-0.2,0-0.3,0.1c0,0-0.1,0.1-0.1,0.1c0,0,0,0.1,0.1,0.1c0.1,0.1,0.1,0.2,0.1,0.2c0,0.1,0,0.2-0.1,0.2
	c-0.1,0.1-0.2,0.1-0.3,0.1c-0.1,0-0.2,0-0.3-0.1c-0.1-0.1-0.1-0.2-0.1-0.2c0-0.1,0.1-0.3,0.2-0.4c0.1-0.1,0.3-0.2,0.4-0.3
	c0.2-0.1,0.4-0.1,0.6-0.1c0.2,0,0.4,0.1,0.6,0.2c0.1,0.1,0.2,0.2,0.3,0.3c0,0.1,0,0.3,0,0.5v1c0,0.1,0,0.2,0,0.2c0,0,0,0.1,0,0.1
	c0,0,0,0,0.1,0c0,0,0.1,0,0.2-0.1l0.1,0.1c-0.1,0.1-0.2,0.2-0.3,0.3c-0.1,0.1-0.2,0.1-0.3,0.1c-0.1,0-0.3,0-0.4-0.1
	C118.5,158.5,118.5,158.4,118.4,158.3z M118.4,158.1v-0.9c-0.2,0.1-0.4,0.3-0.5,0.4c-0.1,0.1-0.1,0.2-0.1,0.3c0,0.1,0,0.2,0.1,0.2
	c0,0.1,0.1,0.1,0.2,0.1C118.2,158.2,118.3,158.2,118.4,158.1z M120.8,155.1v1h0.6v0.3h-0.6v1.6c0,0.2,0,0.3,0,0.3c0,0,0,0.1,0.1,0.1
	c0,0,0.1,0,0.1,0c0.1,0,0.2-0.1,0.3-0.3l0.1,0.1c-0.2,0.4-0.4,0.5-0.7,0.5c-0.2,0-0.3,0-0.4-0.1c-0.1-0.1-0.2-0.2-0.2-0.3
	c0-0.1,0-0.2,0-0.5v-1.4h-0.3v-0.1c0.2-0.2,0.4-0.3,0.6-0.5C120.4,155.5,120.5,155.3,120.8,155.1L120.8,155.1z M122.1,154.8
	c0.1,0,0.2,0,0.3,0.1c0.1,0.1,0.1,0.2,0.1,0.3s0,0.2-0.1,0.3c-0.1,0.1-0.2,0.1-0.3,0.1c-0.1,0-0.2,0-0.3-0.1
	c-0.1-0.1-0.1-0.2-0.1-0.3s0-0.2,0.1-0.3C121.9,154.8,122,154.8,122.1,154.8z M122.5,156.1v2.1c0,0.2,0,0.3,0.1,0.4
	c0,0.1,0.1,0.1,0.3,0.1v0.1h-1.4v-0.1c0.1,0,0.2,0,0.3-0.1c0,0,0.1-0.2,0.1-0.3v-1.5c0-0.2,0-0.3-0.1-0.4c0-0.1-0.1-0.1-0.3-0.1
	v-0.1H122.5z M124.2,156c0.2,0,0.4,0.1,0.6,0.2c0.2,0.1,0.3,0.3,0.4,0.5c0.1,0.2,0.2,0.5,0.2,0.7c0,0.4-0.1,0.7-0.3,0.9
	c-0.2,0.3-0.5,0.5-0.9,0.5c-0.4,0-0.7-0.1-0.9-0.4c-0.2-0.3-0.3-0.6-0.3-1c0-0.4,0.1-0.7,0.3-1C123.5,156.1,123.8,156,124.2,156z
	 M124.2,156.2c-0.1,0-0.2,0-0.2,0.1c-0.1,0.1-0.1,0.2-0.1,0.4c0,0.2,0,0.5,0,0.9c0,0.2,0,0.4,0,0.6c0,0.1,0.1,0.2,0.1,0.3
	c0.1,0.1,0.1,0.1,0.2,0.1c0.1,0,0.2,0,0.2-0.1c0.1-0.1,0.1-0.2,0.1-0.3c0-0.2,0.1-0.5,0.1-1.1c0-0.3,0-0.5-0.1-0.7
	c0-0.1-0.1-0.2-0.2-0.3C124.3,156.2,124.3,156.2,124.2,156.2z M126.7,156.1v0.3c0.1-0.1,0.3-0.2,0.4-0.3c0.1-0.1,0.3-0.1,0.4-0.1
	c0.2,0,0.3,0,0.4,0.1c0.1,0.1,0.2,0.2,0.2,0.4c0,0.1,0,0.3,0,0.6v1c0,0.2,0,0.3,0.1,0.4c0,0,0.1,0.1,0.2,0.1v0.1h-1.3v-0.1
	c0.1,0,0.2-0.1,0.2-0.1c0,0,0-0.2,0-0.3v-1.2c0-0.2,0-0.4,0-0.4c0-0.1,0-0.1-0.1-0.1c0,0-0.1,0-0.1,0c-0.2,0-0.3,0.1-0.4,0.3v1.4
	c0,0.2,0,0.3,0.1,0.4c0,0.1,0.1,0.1,0.2,0.1v0.1h-1.3v-0.1c0.1,0,0.2,0,0.2-0.1c0,0,0-0.2,0-0.4v-1.5c0-0.2,0-0.3-0.1-0.4
	c0,0-0.1-0.1-0.2-0.1v-0.1H126.7z M110.5,151.7c0.1,0.2,0.2,0.4,0.4,0.6c0.2,0.1,0.4,0.2,0.7,0.2c0.1,0,0.2,0,0.2,0v0.2
	c-0.3,0.1-0.5,0.1-0.8,0.1c-0.3,0-0.7-0.1-0.9-0.3c-0.3-0.2-0.5-0.4-0.6-0.7c-0.5-0.1-0.8-0.3-1.1-0.7c-0.3-0.4-0.4-0.8-0.4-1.3
	c0-0.6,0.2-1,0.6-1.4c0.4-0.4,0.9-0.6,1.5-0.6c0.6,0,1.1,0.2,1.4,0.6c0.4,0.4,0.6,0.8,0.6,1.4c0,0.5-0.1,0.9-0.4,1.3
	C111.3,151.4,111,151.6,110.5,151.7z M110,148c-0.3,0-0.6,0.2-0.8,0.5c-0.2,0.3-0.2,0.7-0.2,1.3c0,0.7,0.1,1.1,0.3,1.4
	c0.2,0.2,0.4,0.3,0.7,0.3c0.3,0,0.5-0.1,0.7-0.3c0.2-0.3,0.3-0.8,0.3-1.4c0-0.6-0.1-1.1-0.2-1.3C110.7,148.2,110.4,148,110,148z
	 M114.6,150.6h-1.3l-0.2,0.4c-0.1,0.1-0.1,0.2-0.1,0.3c0,0.1,0,0.2,0.1,0.2c0.1,0,0.2,0.1,0.4,0.1v0.1h-1.3v-0.1
	c0.1,0,0.2-0.1,0.3-0.2c0.1-0.1,0.2-0.3,0.3-0.6l1.4-3h0.1l1.4,3.1c0.1,0.3,0.2,0.5,0.3,0.6c0.1,0.1,0.2,0.1,0.3,0.1v0.1h-1.8v-0.1
	h0.1c0.1,0,0.3,0,0.3-0.1c0,0,0.1-0.1,0.1-0.1c0,0,0-0.1,0-0.1c0,0,0-0.1-0.1-0.2L114.6,150.6z M114.6,150.4l-0.6-1.3l-0.6,1.3
	H114.6z M120,150.3l-0.1,1.3h-3.4v-0.1h0.1c0.1,0,0.2,0,0.3-0.1c0,0,0.1-0.1,0.1-0.1c0,0,0-0.2,0-0.4v-2.5c0-0.2,0-0.3,0-0.4
	c0,0-0.1-0.1-0.1-0.1c-0.1,0-0.1-0.1-0.3-0.1h-0.1v-0.1h2v0.1h-0.2c-0.1,0-0.2,0-0.3,0.1c0,0-0.1,0.1-0.1,0.1c0,0,0,0.2,0,0.4v2.4
	c0,0.2,0,0.3,0,0.4c0,0.1,0.1,0.1,0.1,0.1c0,0,0.2,0,0.3,0h0.3c0.2,0,0.4,0,0.5-0.1c0.1-0.1,0.3-0.2,0.3-0.3
	c0.1-0.2,0.2-0.4,0.3-0.7H120z M16.9,187.4v0.1H15v-0.1h0.2c0.2,0,0.3-0.1,0.4-0.2c0.1-0.1,0.1-0.2,0.1-0.5v-2.9c0-0.2,0-0.4,0-0.5
	c0-0.1-0.1-0.1-0.1-0.1c-0.1-0.1-0.2-0.1-0.3-0.1H15V183h1.9v0.1h-0.2c-0.2,0-0.3,0.1-0.4,0.2c-0.1,0.1-0.1,0.2-0.1,0.5v2.9
	c0,0.2,0,0.4,0,0.5c0,0.1,0.1,0.1,0.1,0.1c0.1,0.1,0.2,0.1,0.3,0.1H16.9z M20,182.9v1.6h-0.1c0-0.3-0.1-0.5-0.2-0.7
	c-0.1-0.2-0.3-0.3-0.4-0.4c-0.2-0.1-0.4-0.2-0.6-0.2c-0.2,0-0.4,0.1-0.6,0.2c-0.2,0.1-0.2,0.3-0.2,0.5c0,0.1,0,0.3,0.1,0.4
	c0.1,0.2,0.5,0.4,1,0.7c0.4,0.2,0.7,0.4,0.9,0.5c0.2,0.1,0.3,0.3,0.4,0.4c0.1,0.2,0.1,0.3,0.1,0.5c0,0.3-0.1,0.6-0.4,0.9
	c-0.3,0.2-0.6,0.4-1,0.4c-0.1,0-0.3,0-0.4,0c-0.1,0-0.2-0.1-0.4-0.1c-0.2-0.1-0.4-0.1-0.4-0.1c-0.1,0-0.1,0-0.1,0
	c0,0-0.1,0.1-0.1,0.2h-0.1v-1.5h0.1c0.1,0.3,0.1,0.6,0.2,0.7c0.1,0.2,0.2,0.3,0.4,0.4c0.2,0.1,0.4,0.2,0.7,0.2
	c0.3,0,0.5-0.1,0.7-0.2c0.2-0.1,0.2-0.3,0.2-0.5c0-0.1,0-0.2-0.1-0.3c-0.1-0.1-0.2-0.2-0.3-0.3c-0.1-0.1-0.3-0.2-0.7-0.4
	c-0.4-0.2-0.7-0.4-0.8-0.5c-0.2-0.1-0.3-0.3-0.4-0.4c-0.1-0.2-0.1-0.3-0.1-0.5c0-0.3,0.1-0.6,0.4-0.8c0.2-0.2,0.6-0.4,1-0.4
	c0.2,0,0.5,0.1,0.8,0.2c0.1,0.1,0.2,0.1,0.3,0.1c0.1,0,0.1,0,0.1-0.1c0,0,0.1-0.1,0.1-0.2H20z M23,182.9c0.6,0,1.1,0.2,1.5,0.7
	c0.4,0.4,0.6,1,0.6,1.7c0,0.7-0.2,1.3-0.6,1.7c-0.4,0.5-1,0.7-1.6,0.7c-0.6,0-1.1-0.2-1.6-0.7c-0.4-0.4-0.6-1-0.6-1.7
	c0-0.7,0.2-1.3,0.7-1.8C21.9,183.1,22.4,182.9,23,182.9z M22.9,183.1c-0.4,0-0.7,0.2-1,0.4c-0.3,0.4-0.5,0.9-0.5,1.6
	c0,0.7,0.2,1.3,0.5,1.7c0.2,0.3,0.6,0.5,1,0.5c0.4,0,0.8-0.2,1-0.5c0.3-0.3,0.4-0.9,0.4-1.6c0-0.8-0.2-1.3-0.5-1.7
	C23.7,183.3,23.4,183.1,22.9,183.1z M27.5,187.6v-0.1c0.3,0,0.6-0.1,0.8-0.2c0.2-0.1,0.5-0.4,0.7-0.7c0.2-0.3,0.4-0.7,0.5-1.1
	c-0.3,0.2-0.7,0.3-0.9,0.3c-0.3,0-0.6-0.1-0.8-0.4c-0.2-0.2-0.3-0.6-0.3-1c0-0.4,0.1-0.7,0.3-1.1c0.3-0.4,0.6-0.6,1.1-0.6
	c0.4,0,0.7,0.2,1,0.5c0.3,0.4,0.5,0.8,0.5,1.4c0,0.5-0.1,1-0.4,1.4c-0.2,0.4-0.6,0.8-1,1.1c-0.4,0.2-0.7,0.4-1.2,0.4H27.5z
	 M29.5,185.3c0-0.3,0.1-0.5,0.1-0.7c0-0.2,0-0.4-0.1-0.7c-0.1-0.2-0.2-0.4-0.3-0.6c-0.1-0.1-0.3-0.2-0.5-0.2c-0.2,0-0.4,0.1-0.5,0.3
	c-0.1,0.2-0.2,0.4-0.2,0.8c0,0.5,0.1,0.8,0.3,1.1c0.1,0.2,0.3,0.3,0.5,0.3c0.1,0,0.2,0,0.4-0.1C29.3,185.4,29.4,185.4,29.5,185.3z
	 M30.6,185.3c0-0.5,0.1-1,0.2-1.3c0.2-0.4,0.4-0.6,0.6-0.8c0.2-0.1,0.4-0.2,0.6-0.2c0.3,0,0.7,0.2,0.9,0.5c0.3,0.4,0.5,1,0.5,1.8
	c0,0.5-0.1,1-0.2,1.3c-0.2,0.4-0.3,0.6-0.6,0.8c-0.2,0.2-0.5,0.2-0.7,0.2c-0.4,0-0.8-0.3-1.1-0.8C30.7,186.4,30.6,185.9,30.6,185.3z
	 M31.3,185.3c0,0.6,0.1,1.1,0.2,1.5c0.1,0.3,0.3,0.5,0.6,0.5c0.1,0,0.2-0.1,0.4-0.2c0.1-0.1,0.2-0.3,0.3-0.5
	c0.1-0.4,0.2-0.9,0.2-1.6c0-0.5-0.1-0.9-0.2-1.3c-0.1-0.3-0.2-0.4-0.3-0.5c-0.1-0.1-0.2-0.1-0.3-0.1c-0.2,0-0.3,0.1-0.4,0.2
	c-0.2,0.2-0.3,0.5-0.3,0.9C31.3,184.6,31.3,185,31.3,185.3z M33.8,185.3c0-0.5,0.1-1,0.2-1.3c0.2-0.4,0.4-0.6,0.6-0.8
	c0.2-0.1,0.4-0.2,0.6-0.2c0.3,0,0.7,0.2,0.9,0.5c0.3,0.4,0.5,1,0.5,1.8c0,0.5-0.1,1-0.2,1.3c-0.2,0.4-0.3,0.6-0.6,0.8
	c-0.2,0.2-0.5,0.2-0.7,0.2c-0.4,0-0.8-0.3-1.1-0.8C34,186.4,33.8,185.9,33.8,185.3z M34.5,185.3c0,0.6,0.1,1.1,0.2,1.5
	c0.1,0.3,0.3,0.5,0.6,0.5c0.1,0,0.2-0.1,0.4-0.2c0.1-0.1,0.2-0.3,0.3-0.5c0.1-0.4,0.2-0.9,0.2-1.6c0-0.5-0.1-0.9-0.2-1.3
	c-0.1-0.3-0.2-0.4-0.3-0.5c-0.1-0.1-0.2-0.1-0.3-0.1c-0.2,0-0.3,0.1-0.4,0.2c-0.2,0.2-0.3,0.5-0.3,0.9
	C34.5,184.6,34.5,185,34.5,185.3z M37.6,183.4l1.1-0.5h0.1v3.8c0,0.3,0,0.4,0,0.5c0,0.1,0.1,0.1,0.1,0.1c0.1,0,0.2,0.1,0.4,0.1v0.1
	h-1.7v-0.1c0.2,0,0.4,0,0.4-0.1c0.1,0,0.1-0.1,0.1-0.1c0-0.1,0-0.2,0-0.5v-2.4c0-0.3,0-0.5,0-0.6c0-0.1,0-0.1-0.1-0.2
	c0,0-0.1,0-0.1,0c-0.1,0-0.2,0-0.3,0.1L37.6,183.4z M41,184.4c0.1,0,0.2,0,0.3,0.1c0.1,0.1,0.1,0.2,0.1,0.3c0,0.1,0,0.2-0.1,0.3
	c-0.1,0.1-0.2,0.1-0.3,0.1c-0.1,0-0.2,0-0.3-0.1c-0.1-0.1-0.1-0.2-0.1-0.3c0-0.1,0-0.2,0.1-0.3C40.8,184.4,40.9,184.4,41,184.4z
	 M41,186.8c0.1,0,0.2,0,0.3,0.1c0.1,0.1,0.1,0.2,0.1,0.3c0,0.1,0,0.2-0.1,0.3c-0.1,0.1-0.2,0.1-0.3,0.1c-0.1,0-0.2,0-0.3-0.1
	c-0.1-0.1-0.1-0.2-0.1-0.3c0-0.1,0-0.2,0.1-0.3C40.8,186.9,40.9,186.8,41,186.8z M44.9,186.6l-0.3,0.9h-2.7v-0.1
	c0.8-0.7,1.3-1.3,1.7-1.7c0.3-0.5,0.5-0.9,0.5-1.2c0-0.3-0.1-0.5-0.3-0.7c-0.2-0.2-0.4-0.3-0.6-0.3c-0.2,0-0.4,0.1-0.6,0.2
	c-0.2,0.1-0.3,0.3-0.4,0.6h-0.1c0.1-0.4,0.2-0.7,0.4-0.9c0.2-0.2,0.5-0.3,0.9-0.3c0.4,0,0.7,0.1,0.9,0.4c0.2,0.2,0.4,0.5,0.4,0.8
	c0,0.2-0.1,0.5-0.2,0.7c-0.2,0.4-0.4,0.7-0.8,1.1c-0.6,0.6-0.9,1-1,1.1h1.2c0.2,0,0.4,0,0.5,0c0.1,0,0.2-0.1,0.3-0.1
	c0.1-0.1,0.1-0.1,0.2-0.2H44.9z M45.3,185.3c0-0.5,0.1-1,0.2-1.3c0.2-0.4,0.4-0.6,0.6-0.8c0.2-0.1,0.4-0.2,0.6-0.2
	c0.3,0,0.7,0.2,0.9,0.5c0.3,0.4,0.5,1,0.5,1.8c0,0.5-0.1,1-0.2,1.3c-0.2,0.4-0.3,0.6-0.6,0.8c-0.2,0.2-0.5,0.2-0.7,0.2
	c-0.4,0-0.8-0.3-1.1-0.8C45.4,186.4,45.3,185.9,45.3,185.3z M45.9,185.3c0,0.6,0.1,1.1,0.2,1.5c0.1,0.3,0.3,0.5,0.6,0.5
	c0.1,0,0.2-0.1,0.4-0.2c0.1-0.1,0.2-0.3,0.3-0.5c0.1-0.4,0.2-0.9,0.2-1.6c0-0.5-0.1-0.9-0.2-1.3c-0.1-0.3-0.2-0.4-0.3-0.5
	c-0.1-0.1-0.2-0.1-0.3-0.1c-0.2,0-0.3,0.1-0.4,0.2c-0.2,0.2-0.3,0.5-0.3,0.9C45.9,184.6,45.9,185,45.9,185.3z M48.5,185.3
	c0-0.5,0.1-1,0.2-1.3c0.2-0.4,0.4-0.6,0.6-0.8c0.2-0.1,0.4-0.2,0.6-0.2c0.3,0,0.7,0.2,0.9,0.5c0.3,0.4,0.5,1,0.5,1.8
	c0,0.5-0.1,1-0.2,1.3c-0.2,0.4-0.3,0.6-0.6,0.8c-0.2,0.2-0.5,0.2-0.7,0.2c-0.4,0-0.8-0.3-1.1-0.8C48.6,186.4,48.5,185.9,48.5,185.3z
	 M49.2,185.3c0,0.6,0.1,1.1,0.2,1.5c0.1,0.3,0.3,0.5,0.6,0.5c0.1,0,0.2-0.1,0.4-0.2c0.1-0.1,0.2-0.3,0.3-0.5
	c0.1-0.4,0.2-0.9,0.2-1.6c0-0.5-0.1-0.9-0.2-1.3c-0.1-0.3-0.2-0.4-0.3-0.5c-0.1-0.1-0.2-0.1-0.3-0.1c-0.2,0-0.3,0.1-0.4,0.2
	c-0.2,0.2-0.3,0.5-0.3,0.9C49.2,184.6,49.2,185,49.2,185.3z M52.8,185.2c-0.4-0.3-0.6-0.5-0.7-0.7c-0.1-0.2-0.2-0.4-0.2-0.6
	c0-0.3,0.1-0.5,0.3-0.8c0.2-0.2,0.5-0.3,0.9-0.3c0.4,0,0.7,0.1,0.9,0.3c0.2,0.2,0.3,0.4,0.3,0.7c0,0.2-0.1,0.3-0.2,0.5
	c-0.1,0.2-0.4,0.4-0.7,0.6c0.4,0.3,0.6,0.5,0.8,0.7c0.2,0.2,0.3,0.5,0.3,0.7c0,0.3-0.1,0.6-0.4,0.8c-0.2,0.2-0.6,0.3-1,0.3
	c-0.4,0-0.8-0.1-1-0.4c-0.2-0.2-0.3-0.4-0.3-0.7c0-0.2,0.1-0.4,0.2-0.6C52.2,185.7,52.5,185.5,52.8,185.2z M53.3,184.9
	c0.3-0.2,0.4-0.4,0.5-0.6c0.1-0.1,0.1-0.3,0.1-0.5c0-0.2-0.1-0.4-0.2-0.6c-0.1-0.1-0.3-0.2-0.5-0.2c-0.2,0-0.4,0.1-0.6,0.2
	c-0.1,0.1-0.2,0.3-0.2,0.5c0,0.1,0,0.2,0.1,0.3c0.1,0.1,0.1,0.2,0.3,0.3L53.3,184.9z M53,185.3c-0.2,0.2-0.3,0.3-0.4,0.5
	c-0.1,0.2-0.1,0.4-0.1,0.6c0,0.3,0.1,0.5,0.2,0.7c0.2,0.2,0.4,0.3,0.6,0.3c0.2,0,0.4-0.1,0.6-0.2c0.1-0.1,0.2-0.3,0.2-0.5
	c0-0.2,0-0.3-0.1-0.4C53.8,186,53.4,185.7,53,185.3z M28.7,154.8v1.3h-0.1c-0.1-0.3-0.2-0.6-0.5-0.8c-0.2-0.2-0.5-0.3-0.8-0.3
	c-0.2,0-0.5,0.1-0.7,0.2c-0.2,0.1-0.3,0.3-0.4,0.5c-0.1,0.3-0.2,0.6-0.2,0.9c0,0.3,0,0.6,0.1,0.9c0.1,0.3,0.2,0.5,0.4,0.6
	c0.2,0.1,0.4,0.2,0.7,0.2c0.2,0,0.5-0.1,0.7-0.2c0.2-0.1,0.4-0.3,0.6-0.5v0.3c-0.2,0.2-0.4,0.4-0.7,0.5c-0.2,0.1-0.5,0.2-0.8,0.2
	c-0.4,0-0.8-0.1-1.1-0.2c-0.3-0.2-0.6-0.4-0.7-0.7c-0.2-0.3-0.3-0.6-0.3-1c0-0.4,0.1-0.7,0.3-1c0.2-0.3,0.4-0.6,0.8-0.8
	c0.3-0.2,0.7-0.3,1-0.3c0.3,0,0.5,0.1,0.8,0.2c0.2,0.1,0.3,0.1,0.3,0.1c0.1,0,0.1,0,0.2-0.1c0,0,0.1-0.1,0.1-0.2H28.7z M31.3,157.3
	h-1.4c0,0.3,0.1,0.6,0.3,0.8c0.1,0.2,0.3,0.2,0.5,0.2c0.1,0,0.2,0,0.3-0.1c0.1-0.1,0.2-0.2,0.3-0.3l0.1,0.1
	c-0.1,0.3-0.3,0.5-0.5,0.6c-0.2,0.1-0.4,0.2-0.6,0.2c-0.4,0-0.7-0.2-0.9-0.4c-0.2-0.2-0.2-0.5-0.2-0.9c0-0.4,0.1-0.8,0.4-1
	c0.2-0.3,0.5-0.4,0.8-0.4c0.3,0,0.5,0.1,0.7,0.3C31.2,156.5,31.3,156.8,31.3,157.3z M30.6,157.1c0-0.3,0-0.5,0-0.6
	c0-0.1-0.1-0.2-0.2-0.3c0,0-0.1-0.1-0.2-0.1c-0.1,0-0.2,0-0.2,0.1c-0.1,0.2-0.2,0.4-0.2,0.7v0.1H30.6z M32.6,156.1l0,0.6
	c0.2-0.3,0.3-0.4,0.5-0.5c0.1-0.1,0.3-0.1,0.4-0.1c0.1,0,0.2,0,0.3,0.1c0.1,0.1,0.1,0.2,0.1,0.3c0,0.1,0,0.2-0.1,0.3
	c-0.1,0.1-0.1,0.1-0.2,0.1c-0.1,0-0.2,0-0.3-0.1c-0.1-0.1-0.1-0.1-0.1-0.1c0,0,0,0-0.1,0c-0.1,0-0.1,0-0.2,0.1
	c-0.1,0.1-0.1,0.2-0.2,0.3c-0.1,0.2-0.1,0.4-0.1,0.6l0,0.6v0.2c0,0.1,0,0.2,0,0.2c0,0.1,0.1,0.1,0.1,0.1c0,0,0.1,0,0.2,0v0.1h-1.4
	v-0.1c0.1,0,0.2,0,0.2-0.1c0-0.1,0.1-0.2,0.1-0.4v-1.5c0-0.2,0-0.2,0-0.3c0-0.1,0-0.1-0.1-0.1c0,0-0.1,0-0.2-0.1v-0.1H32.6z
	 M34.9,155.1v1h0.6v0.3h-0.6v1.6c0,0.2,0,0.3,0,0.3c0,0,0,0.1,0.1,0.1c0,0,0.1,0,0.1,0c0.1,0,0.2-0.1,0.3-0.3l0.1,0.1
	c-0.2,0.4-0.4,0.5-0.7,0.5c-0.2,0-0.3,0-0.4-0.1c-0.1-0.1-0.2-0.2-0.2-0.3c0-0.1,0-0.2,0-0.5v-1.4h-0.3v-0.1
	c0.2-0.2,0.4-0.3,0.6-0.5C34.6,155.5,34.7,155.3,34.9,155.1L34.9,155.1z M36.3,154.8c0.1,0,0.2,0,0.3,0.1c0.1,0.1,0.1,0.2,0.1,0.3
	s0,0.2-0.1,0.3c-0.1,0.1-0.2,0.1-0.3,0.1c-0.1,0-0.2,0-0.3-0.1c-0.1-0.1-0.1-0.2-0.1-0.3s0-0.2,0.1-0.3
	C36.1,154.8,36.2,154.8,36.3,154.8z M36.7,156.1v2.1c0,0.2,0,0.3,0.1,0.4c0,0.1,0.1,0.1,0.3,0.1v0.1h-1.4v-0.1c0.1,0,0.2,0,0.3-0.1
	c0,0,0.1-0.2,0.1-0.3v-1.5c0-0.2,0-0.3-0.1-0.4c0-0.1-0.1-0.1-0.3-0.1v-0.1H36.7z M38.2,156.1h1.5v2c0,0.2,0,0.3,0.1,0.4
	c0,0.1,0.1,0.1,0.2,0.1v0.1h-1.4v-0.1c0.1,0,0.2-0.1,0.2-0.1c0,0,0-0.2,0-0.3v-1.8h-0.7v1.8c0,0.2,0,0.3,0,0.3
	c0,0.1,0.1,0.1,0.2,0.1v0.1h-1.4v-0.1c0.1,0,0.2,0,0.3-0.1c0,0,0-0.2,0-0.3v-1.8h-0.3v-0.3h0.3c0-0.3,0-0.5,0.1-0.7
	c0.1-0.2,0.2-0.3,0.4-0.4c0.2-0.1,0.4-0.2,0.7-0.2c0.2,0,0.3,0,0.5,0.1c0.1,0,0.2,0.1,0.3,0.2c0.1,0.1,0.1,0.2,0.1,0.2
	c0,0.1,0,0.2-0.1,0.2c-0.1,0.1-0.2,0.1-0.3,0.1c-0.1,0-0.2,0-0.2-0.1c-0.1-0.1-0.1-0.1-0.1-0.2c0-0.1,0-0.1,0.1-0.2
	c0-0.1,0.1-0.1,0.1-0.1c0,0,0-0.1,0-0.1c0,0-0.1-0.1-0.3-0.1c-0.1,0-0.2,0-0.3,0.1c-0.1,0.1-0.1,0.1-0.2,0.2c0,0.1,0,0.2,0,0.4
	V156.1z M42.3,158L42.3,158c0,0.3-0.2,0.5-0.4,0.6c-0.2,0.1-0.4,0.2-0.6,0.2c-0.3,0-0.6-0.1-0.8-0.4c-0.2-0.3-0.3-0.6-0.3-0.9
	c0-0.4,0.1-0.7,0.3-0.9c0.2-0.3,0.5-0.5,0.9-0.5c0.3,0,0.5,0.1,0.6,0.2c0.2,0.1,0.2,0.3,0.2,0.5c0,0.1,0,0.2-0.1,0.3
	c-0.1,0.1-0.2,0.1-0.3,0.1c-0.1,0-0.2,0-0.3-0.1c-0.1-0.1-0.1-0.2-0.1-0.4c0-0.1,0-0.2-0.1-0.2c0,0-0.1-0.1-0.2-0.1
	c-0.1,0-0.2,0-0.2,0.1c-0.1,0.1-0.1,0.4-0.1,0.7c0,0.2,0,0.5,0.1,0.7c0.1,0.2,0.2,0.4,0.3,0.5c0.1,0.1,0.2,0.1,0.4,0.1
	c0.1,0,0.2,0,0.3-0.1C42.1,158.2,42.2,158.1,42.3,158z M44,158.3c-0.3,0.3-0.6,0.4-0.9,0.4c-0.2,0-0.3-0.1-0.4-0.1
	c-0.1-0.1-0.1-0.2-0.1-0.4c0-0.2,0.1-0.4,0.3-0.5c0.2-0.2,0.5-0.4,1.1-0.6v-0.3c0-0.2,0-0.3,0-0.4c0,0-0.1-0.1-0.1-0.1
	c-0.1,0-0.1-0.1-0.2-0.1c-0.1,0-0.2,0-0.3,0.1c0,0-0.1,0.1-0.1,0.1c0,0,0,0.1,0.1,0.1c0.1,0.1,0.1,0.2,0.1,0.2c0,0.1,0,0.2-0.1,0.2
	c-0.1,0.1-0.2,0.1-0.3,0.1c-0.1,0-0.2,0-0.3-0.1c-0.1-0.1-0.1-0.2-0.1-0.2c0-0.1,0.1-0.3,0.2-0.4c0.1-0.1,0.3-0.2,0.4-0.3
	c0.2-0.1,0.4-0.1,0.6-0.1c0.2,0,0.4,0.1,0.6,0.2c0.1,0.1,0.2,0.2,0.3,0.3c0,0.1,0,0.3,0,0.5v1c0,0.1,0,0.2,0,0.2c0,0,0,0.1,0,0.1
	c0,0,0,0,0.1,0c0,0,0.1,0,0.2-0.1l0.1,0.1c-0.1,0.1-0.2,0.2-0.3,0.3c-0.1,0.1-0.2,0.1-0.3,0.1c-0.1,0-0.3,0-0.4-0.1
	C44.1,158.5,44,158.4,44,158.3z M44,158.1v-0.9c-0.2,0.1-0.4,0.3-0.5,0.4c-0.1,0.1-0.1,0.2-0.1,0.3c0,0.1,0,0.2,0.1,0.2
	c0,0.1,0.1,0.1,0.2,0.1C43.8,158.2,43.9,158.2,44,158.1z M46.3,155.1v1H47v0.3h-0.6v1.6c0,0.2,0,0.3,0,0.3c0,0,0,0.1,0.1,0.1
	c0,0,0.1,0,0.1,0c0.1,0,0.2-0.1,0.3-0.3l0.1,0.1c-0.2,0.4-0.4,0.5-0.7,0.5c-0.2,0-0.3,0-0.4-0.1c-0.1-0.1-0.2-0.2-0.2-0.3
	c0-0.1,0-0.2,0-0.5v-1.4h-0.3v-0.1c0.2-0.2,0.4-0.3,0.6-0.5C46,155.5,46.1,155.3,46.3,155.1L46.3,155.1z M47.7,154.8
	c0.1,0,0.2,0,0.3,0.1c0.1,0.1,0.1,0.2,0.1,0.3s0,0.2-0.1,0.3c-0.1,0.1-0.2,0.1-0.3,0.1c-0.1,0-0.2,0-0.3-0.1
	c-0.1-0.1-0.1-0.2-0.1-0.3s0-0.2,0.1-0.3C47.5,154.8,47.6,154.8,47.7,154.8z M48.1,156.1v2.1c0,0.2,0,0.3,0.1,0.4
	c0,0.1,0.1,0.1,0.3,0.1v0.1H47v-0.1c0.1,0,0.2,0,0.3-0.1c0,0,0.1-0.2,0.1-0.3v-1.5c0-0.2,0-0.3-0.1-0.4c0-0.1-0.1-0.1-0.3-0.1v-0.1
	H48.1z M49.7,156c0.2,0,0.4,0.1,0.6,0.2c0.2,0.1,0.3,0.3,0.4,0.5c0.1,0.2,0.2,0.5,0.2,0.7c0,0.4-0.1,0.7-0.3,0.9
	c-0.2,0.3-0.5,0.5-0.9,0.5c-0.4,0-0.7-0.1-0.9-0.4c-0.2-0.3-0.3-0.6-0.3-1c0-0.4,0.1-0.7,0.3-1C49.1,156.1,49.4,156,49.7,156z
	 M49.8,156.2c-0.1,0-0.2,0-0.2,0.1c-0.1,0.1-0.1,0.2-0.1,0.4c0,0.2,0,0.5,0,0.9c0,0.2,0,0.4,0,0.6c0,0.1,0.1,0.2,0.1,0.3
	c0.1,0.1,0.1,0.1,0.2,0.1c0.1,0,0.2,0,0.2-0.1c0.1-0.1,0.1-0.2,0.1-0.3c0-0.2,0.1-0.5,0.1-1.1c0-0.3,0-0.5-0.1-0.7
	c0-0.1-0.1-0.2-0.2-0.3C49.9,156.2,49.8,156.2,49.8,156.2z M52.3,156.1v0.3c0.1-0.1,0.3-0.2,0.4-0.3c0.1-0.1,0.3-0.1,0.4-0.1
	c0.2,0,0.3,0,0.4,0.1c0.1,0.1,0.2,0.2,0.2,0.4c0,0.1,0,0.3,0,0.6v1c0,0.2,0,0.3,0.1,0.4c0,0,0.1,0.1,0.2,0.1v0.1h-1.3v-0.1
	c0.1,0,0.2-0.1,0.2-0.1c0,0,0-0.2,0-0.3v-1.2c0-0.2,0-0.4,0-0.4c0-0.1,0-0.1-0.1-0.1c0,0-0.1,0-0.1,0c-0.2,0-0.3,0.1-0.4,0.3v1.4
	c0,0.2,0,0.3,0.1,0.4c0,0.1,0.1,0.1,0.2,0.1v0.1h-1.3v-0.1c0.1,0,0.2,0,0.2-0.1c0,0,0-0.2,0-0.4v-1.5c0-0.2,0-0.3-0.1-0.4
	c0,0-0.1-0.1-0.2-0.1v-0.1H52.3z M36.1,151.7c0.1,0.2,0.2,0.4,0.4,0.6c0.2,0.1,0.4,0.2,0.7,0.2c0.1,0,0.2,0,0.2,0v0.2
	c-0.3,0.1-0.5,0.1-0.8,0.1c-0.3,0-0.7-0.1-0.9-0.3c-0.3-0.2-0.5-0.4-0.6-0.7c-0.5-0.1-0.8-0.3-1.1-0.7c-0.3-0.4-0.4-0.8-0.4-1.3
	c0-0.6,0.2-1,0.6-1.4c0.4-0.4,0.9-0.6,1.5-0.6c0.6,0,1.1,0.2,1.4,0.6c0.4,0.4,0.6,0.8,0.6,1.4c0,0.5-0.1,0.9-0.4,1.3
	C36.9,151.4,36.5,151.6,36.1,151.7z M35.6,148c-0.3,0-0.6,0.2-0.8,0.5c-0.2,0.3-0.2,0.7-0.2,1.3c0,0.7,0.1,1.1,0.3,1.4
	c0.2,0.2,0.4,0.3,0.7,0.3s0.5-0.1,0.7-0.3c0.2-0.3,0.3-0.8,0.3-1.4c0-0.6-0.1-1.1-0.2-1.3C36.2,148.2,36,148,35.6,148z M40.2,150.6
	h-1.3l-0.2,0.4c-0.1,0.1-0.1,0.2-0.1,0.3c0,0.1,0,0.2,0.1,0.2c0.1,0,0.2,0.1,0.4,0.1v0.1h-1.3v-0.1c0.1,0,0.2-0.1,0.3-0.2
	c0.1-0.1,0.2-0.3,0.3-0.6l1.4-3h0.1l1.4,3.1c0.1,0.3,0.2,0.5,0.3,0.6c0.1,0.1,0.2,0.1,0.3,0.1v0.1h-1.8v-0.1h0.1
	c0.1,0,0.3,0,0.3-0.1c0,0,0.1-0.1,0.1-0.1c0,0,0-0.1,0-0.1c0,0,0-0.1-0.1-0.2L40.2,150.6z M40.1,150.4l-0.6-1.3l-0.6,1.3H40.1z
	 M45.6,150.3l-0.1,1.3h-3.4v-0.1h0.1c0.1,0,0.2,0,0.3-0.1c0,0,0.1-0.1,0.1-0.1c0,0,0-0.2,0-0.4v-2.5c0-0.2,0-0.3,0-0.4
	c0,0-0.1-0.1-0.1-0.1c-0.1,0-0.1-0.1-0.3-0.1h-0.1v-0.1h2v0.1h-0.2c-0.1,0-0.2,0-0.3,0.1c-0.1,0-0.1,0.1-0.1,0.1c0,0,0,0.2,0,0.4
	v2.4c0,0.2,0,0.3,0,0.4c0,0.1,0.1,0.1,0.1,0.1c0,0,0.2,0,0.3,0h0.3c0.2,0,0.4,0,0.5-0.1c0.1-0.1,0.2-0.2,0.3-0.3
	c0.1-0.2,0.2-0.4,0.3-0.7H45.6z"/>
<path fill="#C68C3D" d="M41.8,167.6l2.8-2.8c0.9-0.9,2.2-0.8,3.1,0l2.9,2.9c0.4,0.4,1.1,0.4,1.5,0l8-8c0.8-0.9,2.2-0.9,3.1,0
	l2.8,2.8c0.9,0.8,0.9,2.2,0,3.1c-4.2,4.2-8.3,8.3-12.5,12.5c-1.2,1.2-3.1,1.2-4.3,0l-7.4-7.4C40.9,169.8,40.9,168.4,41.8,167.6
	 M265.1,167.6l2.8-2.8c0.8-0.9,2.2-0.8,3.1,0l2.9,2.9c0.4,0.4,1.1,0.4,1.5,0l8-8c0.9-0.9,2.2-0.9,3.1,0l2.8,2.8
	c0.9,0.8,0.9,2.2,0,3.1c-4.2,4.2-8.3,8.3-12.5,12.5c-1.2,1.2-3.1,1.2-4.3,0l-7.4-7.4C264.2,169.8,264.2,168.4,265.1,167.6z
	 M190.7,167.6l2.8-2.8c0.9-0.9,2.2-0.8,3.1,0l2.9,2.9c0.4,0.4,1.1,0.4,1.5,0l8-8c0.8-0.9,2.2-0.9,3.1,0l2.8,2.8
	c0.9,0.8,0.9,2.2,0,3.1c-4.2,4.2-8.3,8.3-12.5,12.5c-1.2,1.2-3.1,1.2-4.3,0l-7.4-7.4C189.8,169.8,189.8,168.4,190.7,167.6z
	 M116.2,167.6l2.8-2.8c0.9-0.9,2.2-0.8,3.1,0l2.9,2.9c0.4,0.4,1.1,0.4,1.5,0l8-8c0.8-0.9,2.2-0.9,3.1,0l2.8,2.8
	c0.9,0.8,0.9,2.2,0,3.1c-4.2,4.2-8.3,8.3-12.5,12.5c-1.2,1.2-3.1,1.2-4.3,0l-7.4-7.4C115.4,169.8,115.4,168.4,116.2,167.6z"/>
<g>
	<defs>
		<path id="SVGID_4_" d="M102,9.4c-6.7,2-12.6,4.5-17.6,7.4c5.5-2.1,11.7-3.8,18.5-5.3C102.7,10.7,102.3,10.1,102,9.4L102,9.4z
			 M205.5,16.8c-14.2-8.1-36-13.3-60.6-13.3c-13.8,0-26.8,1.6-38,4.5c0.2,0.6,0.3,1.2,0.4,1.8c0,0.3,0.1,0.5,0.1,0.8
			c11.3-2.1,24-3.2,37.5-3.2C168.5,7.3,189.9,10.9,205.5,16.8z"/>
	</defs>
	<clipPath id="SVGID_5_">
		<use xlink:href="#SVGID_4_"  overflow="visible"/>
	</clipPath>
	<linearGradient id="SVGID_6_" gradientUnits="userSpaceOnUse" x1="84.3729" y1="10.1043" x2="205.5132" y2="10.1043">
		<stop  offset="0" style="stop-color:#EFAE44"/>
		<stop  offset="0.33" style="stop-color:#EFAE44"/>
		<stop  offset="0.43" style="stop-color:#FFF3D2"/>
		<stop  offset="0.54" style="stop-color:#EFAE44"/>
		<stop  offset="0.75" style="stop-color:#BC7B38"/>
		<stop  offset="1" style="stop-color:#BC7B38"/>
	</linearGradient>
	<rect x="84.4" y="3.4" clip-path="url(#SVGID_5_)" fill="url(#SVGID_6_)" width="121.1" height="13.3"/>
</g>
<path fill-rule="evenodd" clip-rule="evenodd" fill="#FEFEFE" d="M118.7,46.7c-0.8,0.7-1.6,1.3-2.4,1.9l0,0 M82.1,38.4
	c2.5,1.3,5.1,4.1,6.6,4.7c1.1-1.1,3.1-4.2,3.3-5.4c0.2-1-1.2-2.3-2.5-3.2c-0.8-0.5-3.5-2.5-4-2.5C84.8,32.6,82.1,37.4,82.1,38.4z
	 M104.3,26.1c-1.2-1.9-1.2-3.7,0.1-6.3c0.1-0.2,0.2-0.4,0.3-0.7c2.7-7.8,1.4-11.1-2.3-18.1c-2,9.7,4.6,5.4,1,18.9
	c0,0.2-0.1,0.4-0.2,0.6c-0.7,1.9-1.2,4.3-1.1,5.9v0c0.1,3.7,2,4.2,3.4,6.7c1.4,2.5,1.2,5.1,1,5.9C109.5,33.3,106.2,29.2,104.3,26.1z
	 M169.5,42.8L169.5,42.8l-1.9,1.7l0,0l0,0l-0.9,0.8c-1.8-2.3-3.3-5-4-7.6c-0.2-0.6-0.3-1.1-0.4-1.6l0,0l0,0c-0.4-3.4,2-6,8-6.3
	c1.7-0.1,8.7-0.1,12.9,0C178.9,33.8,174,38.6,169.5,42.8z M208,34.3c3-3.4,7.8-5.5,11.1-1.1C216.7,35.4,211.1,34.9,208,34.3z
	 M171.3,49.9c4,3.2,6.8,2.9,10,0.8c8.1-5.3,15.8-13.8,22.4-20.8c3.1-3,6-4.8,10.6-4.8c0.8,0,1.7,0.1,2.6,0.4c4.1,1.6,5.4,8.1,5.1,12
	c-0.2,2.8-5.1,3.5-7.6,3.1c-2.1-0.4-3.1-1.7-4.4-2c-2-0.4-4.1,0.8-3.8,2.7c0.1,0.8,0.6,1.8,1,2.4c1.3,2,0.8,2.2,0.4,2.9
	c-1.3-1.5-2.7-2.9-3.1-4.9c-0.3-1.5,0-3.2,1.2-5.2c-5.2,4.5-10.2,12.5-19.2,18.9c-6.9,4.5-12.4,4.1-17.9-1.9
	c-0.2-0.2-0.3-0.4-0.5-0.6c-3.1,2.6-6.2,4.7-10.2,5.3c-8.3,1.3-12.6-6.8-12.5-14.4c-1.3,1.1-3,1.7-5.1,1.3
	c-4.8-0.9-5.6-4.2-10.6,0.1c-0.4,0.4-0.8,0.8-1.2,1.2c-2,2.1-4.1,4.3-6.4,6.3c-3.2,2.7-6.3,4.8-10.5,5.5c-3.3,0.5-5.8-0.5-7.5-2.4
	l0,0c0,0-0.1-0.1-0.1-0.1c-0.5-0.5-0.9-1.1-1.2-1.8c-4.7,2.5-9.8,4.2-15.9,4.5c-7.1,0.4-15.1-2-17.7-9.4c-2-5.8-1.4-12.2,2.7-17.1
	c2.2-2.6,4.8-3.9,7.6-5.7c0.3,0.9,0,2.1-1.1,2.5c-1.9,1-4.5,2.8-5.9,4.7c-2.5,3.2-3.6,7.7-2.2,11.3c2.1,5.4,8.6,7.4,15.3,7.3
	c5.1-0.1,10.5-1.5,15.3-3.9c-0.3-2.1-0.3-4.4,0-6.5l0.2-0.1c0,1.6,0.3,3.9,0.9,6c3.1-1.6,7.6-4.7,10.2-6.9c1.5-1.3,2.7-2.7,2.5-3.8
	c-0.2-1.4-3.3-4.7-4.2-5.6c-0.7-0.7-1.3-1.3-1.9-2l0,0c-1-1.1-2.1-3.1-2.3-5.4l0,0v0v0c-0.3-2.4,0.7-6.6,1.6-9
	c0.5-1.3,1.1-2.5,1.6-3.8c0.1,2,0,2.6-0.8,4.4c-0.7,1.6-1.2,3-1.1,4.7l0,0c0,0.3,0,0.5,0.1,0.8c0,0.3,0.1,0.6,0.2,0.9
	c0.5,1.7,2,2.9,3,4c0.2,0.2,0.4,0.4,0.6,0.6l0,0c2.3,2.2,4.1,4.1,4.8,8.3c0.3,1.9,0.2,3.1-0.1,4.8c-0.1,0.8-0.3,1.4-0.5,2.1
	c-0.6,2.2-1.9,4.7-3.7,6.1c-2.2,1.7-4.5,3.3-6.9,4.8c2,0.7,5.2,0,8-1.9c0.9-0.6,1.7-1.2,2.5-1.8c0.2-0.1,0.3-0.3,0.5-0.4
	c0.5-0.4,1-0.8,1.6-1.2c0.3-0.2,0.6-0.5,0.9-0.7c2.1-1.8,4.3-3.8,6.5-5.5l0,0v0c2.5-1.9,5-3.3,7.5-3.3c1.8,0,3.4,1.3,5,1.7
	c0.8,0.2,1.7,0.4,2.5,0.2c2.5-0.5,3.8-2,4.5-3.4c1.3-2.4,1-2.7,0.8-5.5c-0.1-1.8-0.2-3.7,0.1-4c0.3-0.3,0.4-0.2,0.5-0.2
	c1.3,1.2,0.5,3.8,3.6,3.8c3.2,0,3.5-2.6,3.8-3.9c-1.6-1.6-4.8-2-4.3-4.5c0.2-0.8,0.8-1.4,1.6-1.8c0.2,2.6,2.2,2.4,3.6,4.6
	c2.1,3.4,2.8,8.2-0.8,10.4c-1.8,1.1-3.3,0.2-5-0.3c-0.3,1.9,0.3,3.3-0.9,5.8c-0.3,0.7-0.8,1.4-1.3,2c0.6,3,3,7.2,5.1,8.6
	c1.9,1.4,4.7,1.5,8-0.6c2-1.3,3.3-2.2,4.8-3.4c-1.9-3.7-3.2-7.7-3.8-11.1l0,0c-1-5,0.4-10,6-12.1c4.8-1.8,12.1-0.2,16.6-0.2
	c3.6,0,6.7-0.9,10.6-1.6c0.6-0.1,0.8,0.1,0.8,0.6c0,1.5,0.2,3.5-0.1,4.8c-0.3,1.7-0.8,1.5-1.6,1.8c-2,0.6-6.4,4.6-7.6,5.9
	c-3.2,3.5-7.1,7.9-11,11.8l0,0c-0.4,0.4-0.8,0.8-1.2,1.2l0,0l0,0l-0.3,0.3L171.3,49.9z M100.6,35.3c0.9,2,1,3.3,0.6,5.2
	c2.1-3.1,0.6-8.8-2.2-10.1c-0.9,0-1.1,0.5-0.8,1.2C98.8,33,99.8,33.5,100.6,35.3z"/>
<path fill-rule="evenodd" clip-rule="evenodd" fill="#FEFEFE" d="M178.2,4.8C170.5,1.9,158.4,0,144.9,0c-13.5,0-25.5,1.9-33.3,4.8
	c10.9-2.2,22.1-3.3,33.3-3.3C156.1,1.6,167.4,2.6,178.2,4.8"/>
<g>
	<defs>
		<path id="SVGID_7_" d="M205.5,72.8c-14.2,8.1-36,13.3-60.6,13.3c-24.5,0-46.4-5.2-60.6-13.3c15.6,5.8,37,9.4,60.6,9.4
			C168.5,82.3,189.9,78.7,205.5,72.8"/>
	</defs>
	<clipPath id="SVGID_8_">
		<use xlink:href="#SVGID_7_"  overflow="visible"/>
	</clipPath>
	<linearGradient id="SVGID_9_" gradientUnits="userSpaceOnUse" x1="84.3729" y1="79.5014" x2="205.5132" y2="79.5014">
		<stop  offset="0" style="stop-color:#EFAE44"/>
		<stop  offset="0.33" style="stop-color:#EFAE44"/>
		<stop  offset="0.43" style="stop-color:#FFF3D2"/>
		<stop  offset="0.54" style="stop-color:#EFAE44"/>
		<stop  offset="0.75" style="stop-color:#BC7B38"/>
		<stop  offset="1" style="stop-color:#BC7B38"/>
	</linearGradient>
	<rect x="84.4" y="72.8" clip-path="url(#SVGID_8_)" fill="url(#SVGID_9_)" width="121.1" height="13.3"/>
</g>
<path fill-rule="evenodd" clip-rule="evenodd" fill="#FEFEFE" d="M178.2,84.8c-7.8,2.9-19.8,4.8-33.3,4.8c-13.5,0-25.5-1.9-33.3-4.8
	c10.9,2.2,22.1,3.3,33.3,3.3C156.1,88.1,167.4,87,178.2,84.8"/>
<path fill="#FEFEFE" d="M192.5,72.9c0.5,0,0.7-0.1,1-0.1v-1c-0.2,0.1-0.5,0.1-0.9,0.1c-0.6,0-0.9-0.3-0.9-1v-4.3h1.7v-1h-1.7V64
	h-1.1v1.6h-1v1h1V71C190.6,72.1,191.2,72.9,192.5,72.9 M183.5,72.8h1.1v-4.3c0-1.3,0.9-1.9,2-1.9c1.1,0,1.7,0.6,1.7,1.8v4.4h1.1
	v-4.4c0-2.1-1-2.9-2.5-2.9c-1.2,0-2,0.6-2.3,1.3v-1.1h-1.1V72.8z M179.3,72c-1,0-1.3-0.5-1.3-1.2c0-1,1-1.4,2.5-1.4h1v0.9
	C181.4,71.4,180.5,72,179.3,72z M179.2,72.9c1,0,1.7-0.4,2.2-1v0.9h1.1v-4.7c0-2-1.2-2.5-2.6-2.5c-1.4,0-2.7,0.6-2.8,2.2h1.1
	c0.1-0.9,0.7-1.3,1.6-1.3c1.1,0,1.5,0.5,1.5,1.6v0.5h-1c-1.8,0-3.6,0.6-3.6,2.2C176.8,72.3,177.9,72.9,179.2,72.9z M173.6,72.8h1.1
	v-3.9c0-1.8,0.9-2.2,2.3-2.3v-1.1c-1.3,0-1.9,0.6-2.3,1.4v-1.3h-1.1V72.8z M169.2,72.9c1.1,0,1.9-0.6,2.3-1.3v1.1h1.1v-7.1h-1.1V70
	c0,1.3-1,1.9-2,1.9c-1.1,0-1.6-0.6-1.6-1.8v-4.4h-1.1v4.5C166.7,72.1,167.8,72.9,169.2,72.9z M162.6,72c-1,0-1.3-0.5-1.3-1.2
	c0-1,1-1.4,2.5-1.4h1v0.9C164.7,71.4,163.8,72,162.6,72z M162.5,72.9c1,0,1.7-0.4,2.2-1v0.9h1.1v-4.7c0-2-1.2-2.5-2.6-2.5
	c-1.4,0-2.7,0.6-2.8,2.2h1.1c0.1-0.9,0.7-1.3,1.6-1.3c1.1,0,1.5,0.5,1.5,1.6v0.5h-1c-1.8,0-3.6,0.6-3.6,2.2
	C160.1,72.3,161.2,72.9,162.5,72.9z M159.2,72.9c0.5,0,0.7-0.1,1-0.1v-1c-0.2,0.1-0.5,0.1-0.9,0.1c-0.6,0-0.9-0.3-0.9-1v-4.3h1.7v-1
	h-1.7V64h-1.1v1.6h-1v1h1V71C157.3,72.1,158,72.9,159.2,72.9z M154,72.9c1.7,0,2.6-0.9,2.6-2.2c0-1.5-1-1.8-2.5-2.1
	c-1.3-0.2-1.7-0.5-1.7-1.1c0-0.6,0.5-1,1.3-1c0.9,0,1.3,0.3,1.5,1.1h1.1c-0.2-1.5-1.3-2.1-2.6-2.1c-1.1,0-2.4,0.7-2.4,2
	c0,1.2,0.6,1.8,2.5,2.1c1.1,0.2,1.7,0.4,1.7,1.2c0,0.8-0.5,1.1-1.6,1.1c-1.1,0-1.6-0.5-1.7-1.4h-1.1C151.3,72,152.3,72.9,154,72.9z
	 M146,68.5c0.2-1.3,1-2.1,2.1-2.1c1.2,0,1.9,0.6,2,2.1H146z M148.2,72.9c1.6,0,2.8-0.7,3-2.2h-1.1c-0.1,0.8-0.8,1.2-1.9,1.2
	c-1.5,0-2.2-0.9-2.3-2.5h5.4v-0.4c0-2.5-1.6-3.5-3.2-3.5c-2,0-3.3,1.5-3.3,3.6v0.1C144.8,71.5,146.2,72.9,148.2,72.9z M141.6,72.8
	h1.1v-3.9c0-1.8,0.9-2.2,2.3-2.3v-1.1c-1.3,0-1.9,0.6-2.3,1.4v-1.3h-1.1V72.8z M133.1,72.8h1.1v-4.3c0-1.3,0.9-1.9,2-1.9
	c1.1,0,1.7,0.6,1.7,1.8v4.4h1.1v-4.4c0-2.1-1-2.9-2.5-2.9c-1.2,0-2,0.6-2.3,1.3v-1.1h-1.1V72.8z M127.3,68.5c0.2-1.3,1-2.1,2.1-2.1
	c1.2,0,1.9,0.6,2,2.1H127.3z M129.5,72.9c1.6,0,2.8-0.7,3-2.2h-1.1c-0.1,0.8-0.8,1.2-1.9,1.2c-1.5,0-2.2-0.9-2.3-2.5h5.4v-0.4
	c0-2.5-1.6-3.5-3.2-3.5c-2,0-3.3,1.5-3.3,3.6v0.1C126.1,71.5,127.5,72.9,129.5,72.9z M123.5,72.9c1.7,0,2.6-0.9,2.6-2.2
	c0-1.5-1-1.8-2.5-2.1c-1.3-0.2-1.7-0.5-1.7-1.1c0-0.6,0.5-1,1.3-1c0.9,0,1.3,0.3,1.5,1.1h1.1c-0.2-1.5-1.3-2.1-2.6-2.1
	c-1.1,0-2.4,0.7-2.4,2c0,1.2,0.6,1.8,2.5,2.1c1.1,0.2,1.7,0.4,1.7,1.2c0,0.8-0.5,1.1-1.6,1.1c-1.1,0-1.6-0.5-1.7-1.4h-1.1
	C120.8,72,121.8,72.9,123.5,72.9z M114.5,72.8h1.1v-4.3c0-1.3,0.9-1.9,2-1.9c1.1,0,1.7,0.6,1.7,1.8v4.4h1.1v-4.4
	c0-2.1-1-2.9-2.5-2.9c-1.2,0-2,0.6-2.3,1.3v-4.5h-1.1V72.8z M110.5,72.9c2,0,3.5-1.5,3.5-3.6v-0.1c0-2.1-1.5-3.6-3.5-3.6
	S107,67,107,69.2v0.1C107,71.4,108.4,72.9,110.5,72.9z M110.5,72c-1.4,0-2.3-1.1-2.3-2.7v-0.1c0-1.6,0.9-2.7,2.3-2.7
	c1.4,0,2.3,1.1,2.3,2.7v0.1C112.8,70.9,111.9,72,110.5,72z M96.4,72.8h1.1v-4.4c0-1.3,1-1.9,1.9-1.9c1,0,1.5,0.5,1.5,1.8v4.5h1.1
	v-4.4c0-1.3,1-1.9,1.9-1.9c1,0,1.5,0.5,1.5,1.8v4.5h1.1v-4.4c0-2.1-1.1-2.8-2.4-2.8c-0.9,0-1.9,0.4-2.4,1.3c-0.4-1-1.2-1.3-2.1-1.3
	c-1,0-1.8,0.5-2.1,1.2v-1.1h-1.1V72.8z"/>
</svg>
